<svg width="49" height="50" viewBox="0 0 49 50" fill="none" xmlns="http://www.w3.org/2000/svg">
<g clip-path="url(#clip0_235_144)">
<path d="M35.7971 29.7784C27.0889 29.8226 25.6803 35.2604 25.2108 39.8582L24.9974 41.8918H23.2471L23.0337 39.8582C22.5643 35.2604 21.1129 29.8226 12.7035 29.7784C11.2949 26.7719 10.6973 24.3404 10.6973 21.5994C10.6973 14.747 16.1186 8.33637 24.1435 8.33637C32.1687 8.33637 37.5045 14.7026 37.5045 21.6438C37.5045 24.3404 37.2484 26.7719 35.7971 29.7784ZM24.0583 0.0249023C10.8255 0.0249023 -0.0170898 11.2543 -0.0170898 25.0034C-0.0170898 38.7971 10.8255 50.0263 24.0583 50.0263C37.4191 50.0263 48.219 38.7971 48.219 25.0034C48.219 11.2544 37.4191 0.0249023 24.0583 0.0249023Z" fill="#29B24A"/>
</g>
<defs>
<clipPath id="clip0_235_144">
<rect width="48.2051" height="50" fill="white"/>
</clipPath>
</defs>
</svg>
