<svg width="51" height="47" viewBox="0 0 51 47" fill="none" xmlns="http://www.w3.org/2000/svg">
<g clip-path="url(#clip0_235_154)">
<path d="M15.2008 46.2523C23.4553 46.2523 30.147 39.5606 30.147 31.3061C30.147 23.0514 23.4553 16.3599 15.2008 16.3599C6.94629 16.3599 0.254639 23.0514 0.254639 31.3061C0.254639 39.5606 6.94629 46.2523 15.2008 46.2523Z" fill="#04E061"/>
<path d="M41.1286 44.366C46.1166 44.366 50.16 40.3225 50.16 35.3346C50.16 30.3466 46.1166 26.3032 41.1286 26.3032C36.1407 26.3032 32.0972 30.3466 32.0972 35.3346C32.0972 40.3225 36.1407 44.366 41.1286 44.366Z" fill="#FF4053"/>
<path d="M18.0592 14.4115C21.1459 14.4115 23.6481 11.9093 23.6481 8.82272C23.6481 5.73609 21.1459 3.23389 18.0592 3.23389C14.9727 3.23389 12.4705 5.73609 12.4705 8.82272C12.4705 11.9093 14.9727 14.4115 18.0592 14.4115Z" fill="#965EEB"/>
<path d="M37.6201 24.353C44.3313 24.353 49.7719 18.9124 49.7719 12.2012C49.7719 5.48987 44.3313 0.0493164 37.6201 0.0493164C30.9087 0.0493164 25.4683 5.48987 25.4683 12.2012C25.4683 18.9124 30.9087 24.353 37.6201 24.353Z" fill="#00AAFF"/>
</g>
<defs>
<clipPath id="clip0_235_154">
<rect width="50" height="46.3415" fill="white" transform="translate(0.205078)"/>
</clipPath>
</defs>
</svg>
