<svg width="130" height="130" viewBox="0 0 130 130" fill="none" xmlns="http://www.w3.org/2000/svg">
<path d="M130 65C130 100.899 100.899 130 65 130C29.1015 130 0 100.899 0 65C0 29.1015 29.1015 0 65 0C100.899 0 130 29.1015 130 65Z" fill="#9238A8"/>
<path fill-rule="evenodd" clip-rule="evenodd" d="M65 128C99.7939 128 128 99.7939 128 65C128 30.2061 99.7939 2 65 2C30.2061 2 2 30.2061 2 65C2 99.7939 30.2061 128 65 128ZM65 130C100.899 130 130 100.899 130 65C130 29.1015 100.899 0 65 0C29.1015 0 0 29.1015 0 65C0 100.899 29.1015 130 65 130Z" fill="url(#paint0_linear_1039_902)"/>
<path d="M88.9979 65C88.9995 65.679 88.8254 66.3469 88.4925 66.9388C88.1596 67.5306 87.6792 68.0262 87.098 68.3773L51.0797 90.4113C50.4725 90.7831 49.7769 90.9861 49.065 90.9993C48.3531 91.0125 47.6505 90.8354 47.0299 90.4863C46.4152 90.1426 45.9031 89.6414 45.5464 89.0342C45.1896 88.427 45.001 87.7357 45 87.0314V42.9686C45.001 42.2643 45.1896 41.573 45.5464 40.9658C45.9031 40.3586 46.4152 39.8574 47.0299 39.5137C47.6505 39.1646 48.3531 38.9875 49.065 39.0007C49.7769 39.0139 50.4725 39.2169 51.0797 39.5887L87.098 61.6227C87.6792 61.9738 88.1596 62.4694 88.4925 63.0612C88.8254 63.6531 88.9995 64.321 88.9979 65Z" fill="white"/>
<defs>
<linearGradient id="paint0_linear_1039_902" x1="65" y1="0" x2="65" y2="130" gradientUnits="userSpaceOnUse">
<stop stop-color="white"/>
<stop offset="1" stop-color="white" stop-opacity="0"/>
</linearGradient>
</defs>
</svg>
