<svg width="250" height="135" viewBox="0 0 250 135" fill="none" xmlns="http://www.w3.org/2000/svg">
<path d="M1.62 112L6.228 84.856H13.212L18.648 99.328L24.048 84.856H31.032L35.64 112H28.62L26.28 96.376L19.872 112H17.064L10.98 96.376L8.64 112H1.62ZM44.2136 93.532V112H37.6976V93.532H44.2136ZM37.2656 86.44C37.2656 85.936 37.3616 85.468 37.5536 85.036C37.7456 84.58 38.0096 84.184 38.3456 83.848C38.6816 83.512 39.0656 83.248 39.4976 83.056C39.9536 82.864 40.4336 82.768 40.9376 82.768C41.4416 82.768 41.9096 82.864 42.3416 83.056C42.7976 83.248 43.1936 83.512 43.5296 83.848C43.8656 84.184 44.1296 84.58 44.3216 85.036C44.5136 85.468 44.6096 85.936 44.6096 86.44C44.6096 86.944 44.5136 87.424 44.3216 87.88C44.1296 88.312 43.8656 88.696 43.5296 89.032C43.1936 89.368 42.7976 89.632 42.3416 89.824C41.9096 90.016 41.4416 90.112 40.9376 90.112C40.4336 90.112 39.9536 90.016 39.4976 89.824C39.0656 89.632 38.6816 89.368 38.3456 89.032C38.0096 88.696 37.7456 88.312 37.5536 87.88C37.3616 87.424 37.2656 86.944 37.2656 86.44ZM67.0264 93.928C65.3944 91.936 63.3784 90.94 60.9784 90.94C59.9224 90.94 58.9384 91.132 58.0264 91.516C57.1384 91.9 56.3704 92.428 55.7224 93.1C55.0744 93.748 54.5584 94.528 54.1744 95.44C53.8144 96.352 53.6344 97.336 53.6344 98.392C53.6344 99.472 53.8144 100.468 54.1744 101.38C54.5584 102.292 55.0744 103.084 55.7224 103.756C56.3944 104.428 57.1744 104.956 58.0624 105.34C58.9504 105.724 59.9104 105.916 60.9424 105.916C63.1984 105.916 65.2264 104.956 67.0264 103.036V111.388L66.3064 111.64C65.2264 112.024 64.2184 112.3 63.2824 112.468C62.3464 112.66 61.4224 112.756 60.5104 112.756C58.6384 112.756 56.8384 112.408 55.1104 111.712C53.4064 110.992 51.8944 109.996 50.5744 108.724C49.2784 107.428 48.2344 105.904 47.4424 104.152C46.6504 102.376 46.2544 100.444 46.2544 98.356C46.2544 96.268 46.6384 94.36 47.4064 92.632C48.1984 90.88 49.2424 89.38 50.5384 88.132C51.8584 86.86 53.3824 85.876 55.1104 85.18C56.8384 84.46 58.6504 84.1 60.5464 84.1C61.6264 84.1 62.6824 84.22 63.7144 84.46C64.7704 84.676 65.8744 85.024 67.0264 85.504V93.928ZM75.1261 102.712C75.1261 103.312 75.2341 103.876 75.4501 104.404C75.6661 104.908 75.9541 105.352 76.3141 105.736C76.6981 106.12 77.1421 106.42 77.6461 106.636C78.1741 106.852 78.7381 106.96 79.3381 106.96C79.9141 106.96 80.4541 106.852 80.9581 106.636C81.4861 106.42 81.9301 106.12 82.2901 105.736C82.6741 105.352 82.9741 104.908 83.1901 104.404C83.4301 103.9 83.5501 103.36 83.5501 102.784C83.5501 102.208 83.4301 101.668 83.1901 101.164C82.9741 100.636 82.6741 100.18 82.2901 99.796C81.9301 99.412 81.4861 99.112 80.9581 98.896C80.4541 98.68 79.9141 98.572 79.3381 98.572C78.7381 98.572 78.1741 98.68 77.6461 98.896C77.1421 99.112 76.6981 99.412 76.3141 99.796C75.9541 100.18 75.6661 100.624 75.4501 101.128C75.2341 101.608 75.1261 102.136 75.1261 102.712ZM83.3341 93.532H89.8861V112H83.3341V109.948C81.9421 111.7 80.0581 112.576 77.6821 112.576C76.3381 112.576 75.1021 112.336 73.9741 111.856C72.8461 111.352 71.8621 110.656 71.0221 109.768C70.1821 108.88 69.5221 107.836 69.0421 106.636C68.5861 105.436 68.3581 104.128 68.3581 102.712C68.3581 101.392 68.5861 100.144 69.0421 98.968C69.4981 97.768 70.1341 96.724 70.9501 95.836C71.7661 94.948 72.7381 94.252 73.8661 93.748C74.9941 93.22 76.2421 92.956 77.6101 92.956C79.9141 92.956 81.8221 93.76 83.3341 95.368V93.532ZM104.76 98.284C103.56 97.66 102.384 97.348 101.232 97.348C100.632 97.348 100.14 97.468 99.7563 97.708C99.3963 97.948 99.2163 98.272 99.2163 98.68C99.2163 98.896 99.2403 99.076 99.2883 99.22C99.3603 99.34 99.4923 99.46 99.6843 99.58C99.9003 99.7 100.2 99.808 100.584 99.904C100.992 100 101.52 100.12 102.168 100.264C103.968 100.624 105.312 101.272 106.2 102.208C107.088 103.12 107.532 104.296 107.532 105.736C107.532 106.816 107.316 107.788 106.884 108.652C106.452 109.516 105.852 110.248 105.084 110.848C104.316 111.424 103.392 111.868 102.312 112.18C101.232 112.516 100.044 112.684 98.7483 112.684C96.2523 112.684 93.7923 111.976 91.3683 110.56L93.7443 105.952C95.5683 107.2 97.2963 107.824 98.9283 107.824C99.5283 107.824 100.02 107.692 100.404 107.428C100.788 107.164 100.98 106.828 100.98 106.42C100.98 106.18 100.944 105.988 100.872 105.844C100.824 105.676 100.704 105.532 100.512 105.412C100.32 105.268 100.032 105.148 99.6483 105.052C99.2883 104.932 98.8083 104.812 98.2083 104.692C96.1923 104.284 94.7763 103.684 93.9603 102.892C93.1683 102.076 92.7723 100.96 92.7723 99.544C92.7723 98.512 92.9643 97.588 93.3483 96.772C93.7323 95.932 94.2843 95.224 95.0043 94.648C95.7243 94.072 96.5883 93.628 97.5963 93.316C98.6283 93.004 99.7683 92.848 101.016 92.848C103.056 92.848 105.036 93.244 106.956 94.036L104.76 98.284ZM115.085 102.712C115.085 103.312 115.193 103.876 115.409 104.404C115.625 104.908 115.913 105.352 116.273 105.736C116.657 106.12 117.101 106.42 117.605 106.636C118.133 106.852 118.697 106.96 119.297 106.96C119.873 106.96 120.413 106.852 120.917 106.636C121.445 106.42 121.889 106.12 122.249 105.736C122.633 105.352 122.933 104.908 123.149 104.404C123.389 103.9 123.509 103.36 123.509 102.784C123.509 102.208 123.389 101.668 123.149 101.164C122.933 100.636 122.633 100.18 122.249 99.796C121.889 99.412 121.445 99.112 120.917 98.896C120.413 98.68 119.873 98.572 119.297 98.572C118.697 98.572 118.133 98.68 117.605 98.896C117.101 99.112 116.657 99.412 116.273 99.796C115.913 100.18 115.625 100.624 115.409 101.128C115.193 101.608 115.085 102.136 115.085 102.712ZM123.293 93.532H129.845V112H123.293V109.948C121.901 111.7 120.017 112.576 117.641 112.576C116.297 112.576 115.061 112.336 113.933 111.856C112.805 111.352 111.821 110.656 110.981 109.768C110.141 108.88 109.481 107.836 109.001 106.636C108.545 105.436 108.317 104.128 108.317 102.712C108.317 101.392 108.545 100.144 109.001 98.968C109.457 97.768 110.093 96.724 110.909 95.836C111.725 94.948 112.697 94.252 113.825 93.748C114.953 93.22 116.201 92.956 117.569 92.956C119.873 92.956 121.781 93.76 123.293 95.368V93.532ZM150.581 95.332H160.769V84.856H167.825V112H160.769V100.804H150.581V112H143.525V84.856H150.581V95.332ZM177.258 102.676C177.258 103.3 177.366 103.876 177.582 104.404C177.822 104.908 178.122 105.352 178.482 105.736C178.866 106.12 179.31 106.42 179.814 106.636C180.342 106.852 180.894 106.96 181.47 106.96C182.046 106.96 182.586 106.852 183.09 106.636C183.618 106.42 184.062 106.12 184.422 105.736C184.806 105.352 185.106 104.908 185.322 104.404C185.562 103.876 185.682 103.312 185.682 102.712C185.682 102.136 185.562 101.596 185.322 101.092C185.106 100.564 184.806 100.108 184.422 99.724C184.062 99.34 183.618 99.04 183.09 98.824C182.586 98.608 182.046 98.5 181.47 98.5C180.894 98.5 180.342 98.608 179.814 98.824C179.31 99.04 178.866 99.34 178.482 99.724C178.122 100.108 177.822 100.552 177.582 101.056C177.366 101.56 177.258 102.1 177.258 102.676ZM170.382 102.604C170.382 101.236 170.658 99.964 171.21 98.788C171.762 97.588 172.53 96.556 173.514 95.692C174.498 94.804 175.662 94.108 177.006 93.604C178.374 93.1 179.862 92.848 181.47 92.848C183.054 92.848 184.518 93.1 185.862 93.604C187.23 94.084 188.406 94.768 189.39 95.656C190.398 96.52 191.178 97.564 191.73 98.788C192.282 99.988 192.558 101.32 192.558 102.784C192.558 104.248 192.27 105.592 191.694 106.816C191.142 108.016 190.374 109.06 189.39 109.948C188.406 110.812 187.218 111.484 185.826 111.964C184.458 112.444 182.97 112.684 181.362 112.684C179.778 112.684 178.314 112.444 176.97 111.964C175.626 111.484 174.462 110.8 173.478 109.912C172.518 109.024 171.762 107.968 171.21 106.744C170.658 105.496 170.382 104.116 170.382 102.604ZM194.509 93.532H201.025V95.8C202.801 94.096 204.793 93.244 207.001 93.244C209.737 93.244 211.825 94.396 213.265 96.7C214.729 94.372 216.817 93.208 219.529 93.208C220.393 93.208 221.209 93.34 221.977 93.604C222.745 93.844 223.405 94.24 223.957 94.792C224.509 95.32 224.941 96.016 225.253 96.88C225.589 97.744 225.757 98.788 225.757 100.012V112H219.241V102.892C219.241 101.956 219.169 101.188 219.025 100.588C218.905 99.988 218.713 99.52 218.449 99.184C218.209 98.848 217.921 98.62 217.585 98.5C217.249 98.38 216.889 98.32 216.505 98.32C214.417 98.32 213.373 99.844 213.373 102.892V112H206.857V102.892C206.857 101.956 206.797 101.188 206.677 100.588C206.557 99.964 206.377 99.472 206.137 99.112C205.921 98.752 205.633 98.512 205.273 98.392C204.913 98.248 204.493 98.176 204.013 98.176C203.605 98.176 203.221 98.236 202.861 98.356C202.501 98.476 202.177 98.716 201.889 99.076C201.625 99.412 201.409 99.892 201.241 100.516C201.097 101.116 201.025 101.908 201.025 102.892V112H194.509V93.532ZM241.927 100.084C241.711 99.172 241.267 98.44 240.595 97.888C239.923 97.336 239.107 97.06 238.147 97.06C237.139 97.06 236.311 97.324 235.663 97.852C235.039 98.38 234.643 99.124 234.475 100.084H241.927ZM234.295 103.864C234.295 106.672 235.615 108.076 238.255 108.076C239.671 108.076 240.739 107.5 241.459 106.348H247.759C246.487 110.572 243.307 112.684 238.219 112.684C236.659 112.684 235.231 112.456 233.935 112C232.639 111.52 231.523 110.848 230.587 109.984C229.675 109.12 228.967 108.088 228.463 106.888C227.959 105.688 227.707 104.344 227.707 102.856C227.707 101.32 227.947 99.94 228.427 98.716C228.907 97.468 229.591 96.412 230.479 95.548C231.367 94.684 232.435 94.024 233.683 93.568C234.955 93.088 236.383 92.848 237.967 92.848C239.527 92.848 240.931 93.088 242.179 93.568C243.427 94.024 244.483 94.696 245.347 95.584C246.211 96.472 246.871 97.564 247.327 98.86C247.783 100.132 248.011 101.572 248.011 103.18V103.864H234.295Z" fill="white"/>
<path opacity="0.7" d="M27.184 131.096C26.32 131.096 25.5467 130.909 24.864 130.536C24.192 130.163 23.664 129.651 23.28 129C22.896 128.349 22.704 127.603 22.704 126.76C22.704 125.917 22.896 125.171 23.28 124.52C23.664 123.869 24.192 123.363 24.864 123C25.5467 122.627 26.32 122.44 27.184 122.44C27.952 122.44 28.6347 122.595 29.232 122.904C29.84 123.203 30.3093 123.651 30.64 124.248L29.472 125C29.1947 124.584 28.8533 124.28 28.448 124.088C28.0533 123.885 27.6267 123.784 27.168 123.784C26.6133 123.784 26.1173 123.907 25.68 124.152C25.2427 124.397 24.896 124.744 24.64 125.192C24.384 125.629 24.256 126.152 24.256 126.76C24.256 127.368 24.384 127.896 24.64 128.344C24.896 128.792 25.2427 129.139 25.68 129.384C26.1173 129.629 26.6133 129.752 27.168 129.752C27.6267 129.752 28.0533 129.656 28.448 129.464C28.8533 129.261 29.1947 128.952 29.472 128.536L30.64 129.272C30.3093 129.859 29.84 130.312 29.232 130.632C28.6347 130.941 27.952 131.096 27.184 131.096ZM34.1993 131V123.464L34.5833 123.864H31.0953V122.52H38.8393V123.864H35.3673L35.7352 123.464V131H34.1993ZM44.9059 131.096C44.2019 131.096 43.5565 130.936 42.9699 130.616C42.3939 130.285 41.9299 129.8 41.5779 129.16C41.2365 128.52 41.0659 127.72 41.0659 126.76C41.0659 125.8 41.2312 125 41.5619 124.36C41.9032 123.72 42.3619 123.24 42.9379 122.92C43.5245 122.6 44.1805 122.44 44.9059 122.44C45.7379 122.44 46.4739 122.621 47.1139 122.984C47.7539 123.347 48.2605 123.853 48.6339 124.504C49.0072 125.144 49.1939 125.896 49.1939 126.76C49.1939 127.624 49.0072 128.381 48.6339 129.032C48.2605 129.683 47.7539 130.189 47.1139 130.552C46.4739 130.915 45.7379 131.096 44.9059 131.096ZM40.4099 134.104V122.52H41.8819V124.808L41.7859 126.776L41.9459 128.744V134.104H40.4099ZM44.7779 129.752C45.3219 129.752 45.8072 129.629 46.2339 129.384C46.6712 129.139 47.0125 128.792 47.2579 128.344C47.5139 127.885 47.6419 127.357 47.6419 126.76C47.6419 126.152 47.5139 125.629 47.2579 125.192C47.0125 124.744 46.6712 124.397 46.2339 124.152C45.8072 123.907 45.3219 123.784 44.7779 123.784C44.2445 123.784 43.7592 123.907 43.3219 124.152C42.8952 124.397 42.5539 124.744 42.2979 125.192C42.0525 125.629 41.9299 126.152 41.9299 126.76C41.9299 127.357 42.0525 127.885 42.2979 128.344C42.5539 128.792 42.8952 129.139 43.3219 129.384C43.7592 129.629 44.2445 129.752 44.7779 129.752ZM55.0575 131.096C54.2042 131.096 53.4468 130.909 52.7855 130.536C52.1242 130.163 51.6015 129.651 51.2175 129C50.8335 128.339 50.6415 127.592 50.6415 126.76C50.6415 125.917 50.8335 125.171 51.2175 124.52C51.6015 123.869 52.1242 123.363 52.7855 123C53.4468 122.627 54.2042 122.44 55.0575 122.44C55.9002 122.44 56.6522 122.627 57.3135 123C57.9855 123.363 58.5082 123.869 58.8815 124.52C59.2655 125.16 59.4575 125.907 59.4575 126.76C59.4575 127.603 59.2655 128.349 58.8815 129C58.5082 129.651 57.9855 130.163 57.3135 130.536C56.6522 130.909 55.9002 131.096 55.0575 131.096ZM55.0575 129.752C55.6015 129.752 56.0868 129.629 56.5135 129.384C56.9508 129.139 57.2922 128.792 57.5375 128.344C57.7828 127.885 57.9055 127.357 57.9055 126.76C57.9055 126.152 57.7828 125.629 57.5375 125.192C57.2922 124.744 56.9508 124.397 56.5135 124.152C56.0868 123.907 55.6015 123.784 55.0575 123.784C54.5135 123.784 54.0282 123.907 53.6015 124.152C53.1748 124.397 52.8335 124.744 52.5775 125.192C52.3215 125.629 52.1935 126.152 52.1935 126.76C52.1935 127.357 52.3215 127.885 52.5775 128.344C52.8335 128.792 53.1748 129.139 53.6015 129.384C54.0282 129.629 54.5135 129.752 55.0575 129.752ZM61.6755 131V122.52H63.2115V128.696L68.4115 122.52H69.8035V131H68.2675V124.824L63.0835 131H61.6755ZM74.4649 131V123.464L74.8489 123.864H71.3609V122.52H79.1049V123.864H75.6329L76.0009 123.464V131H74.4649ZM84.0765 131.096C83.1698 131.096 82.3698 130.909 81.6765 130.536C80.9938 130.163 80.4605 129.651 80.0765 129C79.7032 128.349 79.5165 127.603 79.5165 126.76C79.5165 125.917 79.6978 125.171 80.0605 124.52C80.4338 123.869 80.9405 123.363 81.5805 123C82.2312 122.627 82.9618 122.44 83.7725 122.44C84.5938 122.44 85.3192 122.621 85.9485 122.984C86.5778 123.347 87.0685 123.859 87.4205 124.52C87.7832 125.171 87.9645 125.933 87.9645 126.808C87.9645 126.872 87.9592 126.947 87.9485 127.032C87.9485 127.117 87.9432 127.197 87.9325 127.272H80.7165V126.168H87.1325L86.5085 126.552C86.5192 126.008 86.4072 125.523 86.1725 125.096C85.9378 124.669 85.6125 124.339 85.1965 124.104C84.7912 123.859 84.3165 123.736 83.7725 123.736C83.2392 123.736 82.7645 123.859 82.3485 124.104C81.9325 124.339 81.6072 124.675 81.3725 125.112C81.1378 125.539 81.0205 126.029 81.0205 126.584V126.84C81.0205 127.405 81.1485 127.912 81.4045 128.36C81.6712 128.797 82.0392 129.139 82.5085 129.384C82.9778 129.629 83.5165 129.752 84.1245 129.752C84.6258 129.752 85.0792 129.667 85.4845 129.496C85.9005 129.325 86.2632 129.069 86.5725 128.728L87.4205 129.72C87.0365 130.168 86.5565 130.509 85.9805 130.744C85.4152 130.979 84.7805 131.096 84.0765 131.096ZM88.7988 130.984L88.8948 129.688C88.9694 129.699 89.0388 129.709 89.1028 129.72C89.1668 129.731 89.2254 129.736 89.2788 129.736C89.6201 129.736 89.8868 129.619 90.0788 129.384C90.2814 129.149 90.4308 128.84 90.5268 128.456C90.6228 128.061 90.6921 127.619 90.7348 127.128C90.7774 126.637 90.8094 126.147 90.8307 125.656L90.9748 122.52H97.4868V131H95.9508V123.416L96.3188 123.864H91.9668L92.3188 123.4L92.2068 125.752C92.1748 126.499 92.1161 127.197 92.0308 127.848C91.9454 128.499 91.8121 129.069 91.6308 129.56C91.4601 130.051 91.2201 130.435 90.9108 130.712C90.6121 130.989 90.2228 131.128 89.7428 131.128C89.6041 131.128 89.4548 131.112 89.2948 131.08C89.1454 131.059 88.9801 131.027 88.7988 130.984ZM104.377 125.4C105.454 125.411 106.275 125.656 106.841 126.136C107.406 126.616 107.689 127.293 107.689 128.168C107.689 129.085 107.379 129.795 106.761 130.296C106.142 130.787 105.267 131.027 104.137 131.016L100.457 131V122.52H101.993V125.384L104.377 125.4ZM104.009 129.848C104.702 129.859 105.225 129.72 105.577 129.432C105.939 129.144 106.121 128.717 106.121 128.152C106.121 127.597 105.945 127.192 105.593 126.936C105.241 126.68 104.713 126.547 104.009 126.536L101.993 126.504V129.832L104.009 129.848ZM109.66 131V122.52H111.196V126.12H116.028V122.52H117.564V131H116.028V127.448H111.196V131H109.66ZM125.751 131V129.208L125.671 128.872V125.816C125.671 125.165 125.479 124.664 125.095 124.312C124.721 123.949 124.156 123.768 123.399 123.768C122.897 123.768 122.407 123.853 121.927 124.024C121.447 124.184 121.041 124.403 120.711 124.68L120.071 123.528C120.508 123.176 121.031 122.909 121.639 122.728C122.257 122.536 122.903 122.44 123.575 122.44C124.737 122.44 125.633 122.723 126.263 123.288C126.892 123.853 127.207 124.717 127.207 125.88V131H125.751ZM122.967 131.096C122.337 131.096 121.783 130.989 121.303 130.776C120.833 130.563 120.471 130.269 120.215 129.896C119.959 129.512 119.831 129.08 119.831 128.6C119.831 128.141 119.937 127.725 120.151 127.352C120.375 126.979 120.732 126.68 121.223 126.456C121.724 126.232 122.396 126.12 123.239 126.12H125.927V127.224H123.303C122.535 127.224 122.017 127.352 121.751 127.608C121.484 127.864 121.351 128.173 121.351 128.536C121.351 128.952 121.516 129.288 121.847 129.544C122.177 129.789 122.636 129.912 123.223 129.912C123.799 129.912 124.3 129.784 124.727 129.528C125.164 129.272 125.479 128.899 125.671 128.408L125.975 129.464C125.772 129.965 125.415 130.365 124.903 130.664C124.391 130.952 123.745 131.096 122.967 131.096ZM135.396 131V128.024L135.636 128.312H132.932C131.802 128.312 130.916 128.072 130.276 127.592C129.647 127.112 129.332 126.413 129.332 125.496C129.332 124.515 129.668 123.773 130.34 123.272C131.023 122.771 131.93 122.52 133.06 122.52H136.772V131H135.396ZM129.252 131L131.556 127.752H133.14L130.9 131H129.252ZM135.396 127.544V123.432L135.636 123.864H133.108C132.404 123.864 131.86 123.997 131.476 124.264C131.092 124.52 130.9 124.947 130.9 125.544C130.9 126.653 131.615 127.208 133.044 127.208H135.636L135.396 127.544ZM150.21 131L146.93 126.872L148.194 126.104L152.018 131H150.21ZM144.066 131V122.52H145.602V131H144.066ZM145.138 127.416V126.104H147.938V127.416H145.138ZM148.322 126.936L146.898 126.744L150.146 122.52H151.794L148.322 126.936ZM156.979 131.096C156.126 131.096 155.369 130.909 154.707 130.536C154.046 130.163 153.523 129.651 153.139 129C152.755 128.339 152.563 127.592 152.563 126.76C152.563 125.917 152.755 125.171 153.139 124.52C153.523 123.869 154.046 123.363 154.707 123C155.369 122.627 156.126 122.44 156.979 122.44C157.822 122.44 158.574 122.627 159.235 123C159.907 123.363 160.43 123.869 160.803 124.52C161.187 125.16 161.379 125.907 161.379 126.76C161.379 127.603 161.187 128.349 160.803 129C160.43 129.651 159.907 130.163 159.235 130.536C158.574 130.909 157.822 131.096 156.979 131.096ZM156.979 129.752C157.523 129.752 158.009 129.629 158.435 129.384C158.873 129.139 159.214 128.792 159.459 128.344C159.705 127.885 159.827 127.357 159.827 126.76C159.827 126.152 159.705 125.629 159.459 125.192C159.214 124.744 158.873 124.397 158.435 124.152C158.009 123.907 157.523 123.784 156.979 123.784C156.435 123.784 155.95 123.907 155.523 124.152C155.097 124.397 154.755 124.744 154.499 125.192C154.243 125.629 154.115 126.152 154.115 126.76C154.115 127.357 154.243 127.885 154.499 128.344C154.755 128.792 155.097 129.139 155.523 129.384C155.95 129.629 156.435 129.752 156.979 129.752ZM163.597 131V122.52H165.181L168.829 128.792H168.189L171.933 122.52H173.373V131H171.981V124.248L172.237 124.392L168.813 130.04H168.141L164.701 124.28L165.005 124.216V131H163.597ZM176.363 131V122.52H184.219V131H182.683V123.48L183.051 123.864H177.531L177.899 123.48V131H176.363ZM192.391 131V129.208L192.311 128.872V125.816C192.311 125.165 192.119 124.664 191.735 124.312C191.362 123.949 190.796 123.768 190.039 123.768C189.538 123.768 189.047 123.853 188.567 124.024C188.087 124.184 187.682 124.403 187.351 124.68L186.711 123.528C187.148 123.176 187.671 122.909 188.279 122.728C188.898 122.536 189.543 122.44 190.215 122.44C191.378 122.44 192.274 122.723 192.903 123.288C193.532 123.853 193.847 124.717 193.847 125.88V131H192.391ZM189.607 131.096C188.978 131.096 188.423 130.989 187.943 130.776C187.474 130.563 187.111 130.269 186.855 129.896C186.599 129.512 186.471 129.08 186.471 128.6C186.471 128.141 186.578 127.725 186.791 127.352C187.015 126.979 187.372 126.68 187.863 126.456C188.364 126.232 189.036 126.12 189.879 126.12H192.567V127.224H189.943C189.175 127.224 188.658 127.352 188.391 127.608C188.124 127.864 187.991 128.173 187.991 128.536C187.991 128.952 188.156 129.288 188.487 129.544C188.818 129.789 189.276 129.912 189.863 129.912C190.439 129.912 190.94 129.784 191.367 129.528C191.804 129.272 192.119 128.899 192.311 128.408L192.615 129.464C192.412 129.965 192.055 130.365 191.543 130.664C191.031 130.952 190.386 131.096 189.607 131.096ZM196.613 131V122.52H198.149V126.12H202.981V122.52H204.517V131H202.981V127.448H198.149V131H196.613ZM207.504 131V122.52H209.04V128.696L214.24 122.52H215.632V131H214.096V124.824L208.912 131H207.504ZM224.037 131V128.024L224.277 128.312H221.573C220.442 128.312 219.557 128.072 218.917 127.592C218.288 127.112 217.973 126.413 217.973 125.496C217.973 124.515 218.309 123.773 218.981 123.272C219.664 122.771 220.57 122.52 221.701 122.52H225.413V131H224.037ZM217.893 131L220.197 127.752H221.781L219.541 131H217.893ZM224.037 127.544V123.432L224.277 123.864H221.749C221.045 123.864 220.501 123.997 220.117 124.264C219.733 124.52 219.541 124.947 219.541 125.544C219.541 126.653 220.256 127.208 221.685 127.208H224.277L224.037 127.544Z" fill="white"/>
<path fill-rule="evenodd" clip-rule="evenodd" d="M56 60V42.8579V38.5724L90.2842 0L109.651 16.7847L124.571 0L193.142 60H167.429L124.571 25.7131L122.427 27.8571L122.427 27.8572L107.429 42.8579L107.427 42.8564L90.2839 60V42.8579V38.5724L96.3355 31.7645L90.2842 25.7131L56 60Z" fill="#9238A8"/>
</svg>
