<svg width="335" height="45" viewBox="0 0 335 45" fill="none" xmlns="http://www.w3.org/2000/svg">
<path d="M114.297 28L118.393 3.872H124.601L129.433 16.736L134.233 3.872H140.441L144.537 28H138.297L136.217 14.112L130.521 28H128.025L122.617 14.112L120.537 28H114.297ZM152.158 11.584V28H146.366V11.584H152.158ZM145.982 5.28C145.982 4.832 146.067 4.416 146.238 4.032C146.408 3.62667 146.643 3.27467 146.942 2.976C147.24 2.67733 147.582 2.44267 147.966 2.272C148.371 2.10133 148.798 2.016 149.246 2.016C149.694 2.016 150.11 2.10133 150.494 2.272C150.899 2.44267 151.251 2.67733 151.55 2.976C151.848 3.27467 152.083 3.62667 152.254 4.032C152.424 4.416 152.51 4.832 152.51 5.28C152.51 5.728 152.424 6.15467 152.254 6.56C152.083 6.944 151.848 7.28533 151.55 7.584C151.251 7.88267 150.899 8.11733 150.494 8.288C150.11 8.45867 149.694 8.544 149.246 8.544C148.798 8.544 148.371 8.45867 147.966 8.288C147.582 8.11733 147.24 7.88267 146.942 7.584C146.643 7.28533 146.408 6.944 146.238 6.56C146.067 6.15467 145.982 5.728 145.982 5.28ZM172.436 11.936C170.985 10.1653 169.193 9.28 167.06 9.28C166.121 9.28 165.246 9.45067 164.436 9.792C163.646 10.1333 162.964 10.6027 162.388 11.2C161.812 11.776 161.353 12.4693 161.012 13.28C160.692 14.0907 160.532 14.9653 160.532 15.904C160.532 16.864 160.692 17.7493 161.012 18.56C161.353 19.3707 161.812 20.0747 162.388 20.672C162.985 21.2693 163.678 21.7387 164.468 22.08C165.257 22.4213 166.11 22.592 167.028 22.592C169.033 22.592 170.836 21.7387 172.436 20.032V27.456L171.796 27.68C170.836 28.0213 169.94 28.2667 169.108 28.416C168.276 28.5867 167.454 28.672 166.644 28.672C164.98 28.672 163.38 28.3627 161.844 27.744C160.329 27.104 158.985 26.2187 157.812 25.088C156.66 23.936 155.732 22.5813 155.028 21.024C154.324 19.4453 153.972 17.728 153.972 15.872C153.972 14.016 154.313 12.32 154.996 10.784C155.7 9.22667 156.628 7.89333 157.78 6.784C158.953 5.65333 160.308 4.77867 161.844 4.16C163.38 3.52 164.99 3.2 166.676 3.2C167.636 3.2 168.574 3.30667 169.492 3.52C170.43 3.712 171.412 4.02133 172.436 4.448V11.936ZM179.635 19.744C179.635 20.2773 179.731 20.7787 179.923 21.248C180.115 21.696 180.371 22.0907 180.691 22.432C181.033 22.7733 181.427 23.04 181.875 23.232C182.345 23.424 182.846 23.52 183.379 23.52C183.891 23.52 184.371 23.424 184.819 23.232C185.289 23.04 185.683 22.7733 186.003 22.432C186.345 22.0907 186.611 21.696 186.803 21.248C187.017 20.8 187.123 20.32 187.123 19.808C187.123 19.296 187.017 18.816 186.803 18.368C186.611 17.8987 186.345 17.4933 186.003 17.152C185.683 16.8107 185.289 16.544 184.819 16.352C184.371 16.16 183.891 16.064 183.379 16.064C182.846 16.064 182.345 16.16 181.875 16.352C181.427 16.544 181.033 16.8107 180.691 17.152C180.371 17.4933 180.115 17.888 179.923 18.336C179.731 18.7627 179.635 19.232 179.635 19.744ZM186.931 11.584H192.755V28H186.931V26.176C185.694 27.7333 184.019 28.512 181.907 28.512C180.713 28.512 179.614 28.2987 178.611 27.872C177.609 27.424 176.734 26.8053 175.987 26.016C175.241 25.2267 174.654 24.2987 174.227 23.232C173.822 22.1653 173.619 21.0027 173.619 19.744C173.619 18.5707 173.822 17.4613 174.227 16.416C174.633 15.3493 175.198 14.4213 175.923 13.632C176.649 12.8427 177.513 12.224 178.515 11.776C179.518 11.3067 180.627 11.072 181.843 11.072C183.891 11.072 185.587 11.7867 186.931 13.216V11.584ZM205.977 15.808C204.91 15.2533 203.865 14.976 202.841 14.976C202.307 14.976 201.87 15.0827 201.529 15.296C201.209 15.5093 201.049 15.7973 201.049 16.16C201.049 16.352 201.07 16.512 201.113 16.64C201.177 16.7467 201.294 16.8533 201.465 16.96C201.657 17.0667 201.923 17.1627 202.265 17.248C202.627 17.3333 203.097 17.44 203.673 17.568C205.273 17.888 206.467 18.464 207.257 19.296C208.046 20.1067 208.441 21.152 208.441 22.432C208.441 23.392 208.249 24.256 207.865 25.024C207.481 25.792 206.947 26.4427 206.265 26.976C205.582 27.488 204.761 27.8827 203.801 28.16C202.841 28.4587 201.785 28.608 200.633 28.608C198.414 28.608 196.227 27.9787 194.073 26.72L196.185 22.624C197.806 23.7333 199.342 24.288 200.793 24.288C201.326 24.288 201.763 24.1707 202.105 23.936C202.446 23.7013 202.617 23.4027 202.617 23.04C202.617 22.8267 202.585 22.656 202.521 22.528C202.478 22.3787 202.371 22.2507 202.201 22.144C202.03 22.016 201.774 21.9093 201.433 21.824C201.113 21.7173 200.686 21.6107 200.153 21.504C198.361 21.1413 197.102 20.608 196.377 19.904C195.673 19.1787 195.321 18.1867 195.321 16.928C195.321 16.0107 195.491 15.1893 195.833 14.464C196.174 13.7173 196.665 13.088 197.305 12.576C197.945 12.064 198.713 11.6693 199.609 11.392C200.526 11.1147 201.539 10.976 202.649 10.976C204.462 10.976 206.222 11.328 207.929 12.032L205.977 15.808ZM215.154 19.744C215.154 20.2773 215.25 20.7787 215.442 21.248C215.634 21.696 215.89 22.0907 216.21 22.432C216.551 22.7733 216.946 23.04 217.394 23.232C217.863 23.424 218.365 23.52 218.898 23.52C219.41 23.52 219.89 23.424 220.338 23.232C220.807 23.04 221.202 22.7733 221.522 22.432C221.863 22.0907 222.13 21.696 222.322 21.248C222.535 20.8 222.642 20.32 222.642 19.808C222.642 19.296 222.535 18.816 222.322 18.368C222.13 17.8987 221.863 17.4933 221.522 17.152C221.202 16.8107 220.807 16.544 220.338 16.352C219.89 16.16 219.41 16.064 218.898 16.064C218.365 16.064 217.863 16.16 217.394 16.352C216.946 16.544 216.551 16.8107 216.21 17.152C215.89 17.4933 215.634 17.888 215.442 18.336C215.25 18.7627 215.154 19.232 215.154 19.744ZM222.45 11.584H228.274V28H222.45V26.176C221.213 27.7333 219.538 28.512 217.426 28.512C216.231 28.512 215.133 28.2987 214.13 27.872C213.127 27.424 212.253 26.8053 211.506 26.016C210.759 25.2267 210.173 24.2987 209.746 23.232C209.341 22.1653 209.138 21.0027 209.138 19.744C209.138 18.5707 209.341 17.4613 209.746 16.416C210.151 15.3493 210.717 14.4213 211.442 13.632C212.167 12.8427 213.031 12.224 214.034 11.776C215.037 11.3067 216.146 11.072 217.362 11.072C219.41 11.072 221.106 11.7867 222.45 13.216V11.584ZM246.707 13.184H255.763V3.872H262.035V28H255.763V18.048H246.707V28H240.435V3.872H246.707V13.184ZM270.419 19.712C270.419 20.2667 270.515 20.7787 270.707 21.248C270.92 21.696 271.187 22.0907 271.507 22.432C271.848 22.7733 272.243 23.04 272.691 23.232C273.16 23.424 273.651 23.52 274.163 23.52C274.675 23.52 275.155 23.424 275.603 23.232C276.072 23.04 276.467 22.7733 276.787 22.432C277.128 22.0907 277.395 21.696 277.587 21.248C277.8 20.7787 277.907 20.2773 277.907 19.744C277.907 19.232 277.8 18.752 277.587 18.304C277.395 17.8347 277.128 17.4293 276.787 17.088C276.467 16.7467 276.072 16.48 275.603 16.288C275.155 16.096 274.675 16 274.163 16C273.651 16 273.16 16.096 272.691 16.288C272.243 16.48 271.848 16.7467 271.507 17.088C271.187 17.4293 270.92 17.824 270.707 18.272C270.515 18.72 270.419 19.2 270.419 19.712ZM264.307 19.648C264.307 18.432 264.552 17.3013 265.043 16.256C265.533 15.1893 266.216 14.272 267.091 13.504C267.965 12.7147 269 12.096 270.195 11.648C271.411 11.2 272.733 10.976 274.163 10.976C275.571 10.976 276.872 11.2 278.067 11.648C279.283 12.0747 280.328 12.6827 281.203 13.472C282.099 14.24 282.792 15.168 283.283 16.256C283.773 17.3227 284.019 18.5067 284.019 19.808C284.019 21.1093 283.763 22.304 283.251 23.392C282.76 24.4587 282.077 25.3867 281.203 26.176C280.328 26.944 279.272 27.5413 278.035 27.968C276.819 28.3947 275.496 28.608 274.067 28.608C272.659 28.608 271.357 28.3947 270.163 27.968C268.968 27.5413 267.933 26.9333 267.059 26.144C266.205 25.3547 265.533 24.416 265.043 23.328C264.552 22.2187 264.307 20.992 264.307 19.648ZM285.753 11.584H291.545V13.6C293.124 12.0853 294.894 11.328 296.857 11.328C299.289 11.328 301.145 12.352 302.425 14.4C303.726 12.3307 305.582 11.296 307.993 11.296C308.761 11.296 309.486 11.4133 310.169 11.648C310.852 11.8613 311.438 12.2133 311.929 12.704C312.42 13.1733 312.804 13.792 313.081 14.56C313.38 15.328 313.529 16.256 313.529 17.344V28H307.737V19.904C307.737 19.072 307.673 18.3893 307.545 17.856C307.438 17.3227 307.268 16.9067 307.033 16.608C306.82 16.3093 306.564 16.1067 306.265 16C305.966 15.8933 305.646 15.84 305.305 15.84C303.449 15.84 302.521 17.1947 302.521 19.904V28H296.729V19.904C296.729 19.072 296.676 18.3893 296.569 17.856C296.462 17.3013 296.302 16.864 296.089 16.544C295.897 16.224 295.641 16.0107 295.321 15.904C295.001 15.776 294.628 15.712 294.201 15.712C293.838 15.712 293.497 15.7653 293.177 15.872C292.857 15.9787 292.569 16.192 292.313 16.512C292.078 16.8107 291.886 17.2373 291.737 17.792C291.609 18.3253 291.545 19.0293 291.545 19.904V28H285.753V11.584ZM327.903 17.408C327.711 16.5973 327.316 15.9467 326.719 15.456C326.122 14.9653 325.396 14.72 324.543 14.72C323.647 14.72 322.911 14.9547 322.335 15.424C321.78 15.8933 321.428 16.5547 321.279 17.408H327.903ZM321.119 20.768C321.119 23.264 322.292 24.512 324.639 24.512C325.898 24.512 326.847 24 327.487 22.976H333.087C331.956 26.7307 329.13 28.608 324.607 28.608C323.22 28.608 321.951 28.4053 320.799 28C319.647 27.5733 318.655 26.976 317.823 26.208C317.012 25.44 316.383 24.5227 315.935 23.456C315.487 22.3893 315.263 21.1947 315.263 19.872C315.263 18.5067 315.476 17.28 315.903 16.192C316.33 15.0827 316.938 14.144 317.727 13.376C318.516 12.608 319.466 12.0213 320.575 11.616C321.706 11.1893 322.975 10.976 324.383 10.976C325.77 10.976 327.018 11.1893 328.127 11.616C329.236 12.0213 330.175 12.6187 330.943 13.408C331.711 14.1973 332.298 15.168 332.703 16.32C333.108 17.4507 333.311 18.7307 333.311 20.16V20.768H321.119Z" fill="white"/>
<path opacity="0.7" d="M184.745 41.072C184.097 41.072 183.517 40.932 183.005 40.652C182.501 40.372 182.105 39.988 181.817 39.5C181.529 39.004 181.385 38.444 181.385 37.82C181.385 37.196 181.529 36.64 181.817 36.152C182.105 35.656 182.501 35.272 183.005 35C183.517 34.72 184.097 34.58 184.745 34.58C185.321 34.58 185.833 34.696 186.281 34.928C186.737 35.16 187.089 35.496 187.337 35.936L186.461 36.5C186.261 36.196 186.013 35.968 185.717 35.816C185.421 35.664 185.093 35.588 184.733 35.588C184.317 35.588 183.941 35.68 183.605 35.864C183.277 36.048 183.017 36.312 182.825 36.656C182.641 36.992 182.549 37.38 182.549 37.82C182.549 38.268 182.641 38.664 182.825 39.008C183.017 39.344 183.277 39.604 183.605 39.788C183.941 39.972 184.317 40.064 184.733 40.064C185.093 40.064 185.421 39.988 185.717 39.836C186.013 39.684 186.261 39.456 186.461 39.152L187.337 39.704C187.089 40.144 186.737 40.484 186.281 40.724C185.833 40.956 185.321 41.072 184.745 41.072ZM193.486 35.648H191.158V41H190.006V35.648H187.678V34.64H193.486V35.648ZM198.036 34.58C198.652 34.58 199.204 34.716 199.692 34.988C200.18 35.26 200.56 35.64 200.832 36.128C201.112 36.616 201.252 37.18 201.252 37.82C201.252 38.46 201.112 39.028 200.832 39.524C200.56 40.012 200.18 40.392 199.692 40.664C199.204 40.936 198.652 41.072 198.036 41.072C197.58 41.072 197.16 40.984 196.776 40.808C196.4 40.632 196.08 40.376 195.816 40.04V43.328H194.664V34.64H195.768V35.648C196.024 35.296 196.348 35.032 196.74 34.856C197.132 34.672 197.564 34.58 198.036 34.58ZM197.94 40.064C198.348 40.064 198.712 39.972 199.032 39.788C199.36 39.596 199.616 39.332 199.8 38.996C199.992 38.652 200.088 38.26 200.088 37.82C200.088 37.38 199.992 36.992 199.8 36.656C199.616 36.312 199.36 36.048 199.032 35.864C198.712 35.68 198.348 35.588 197.94 35.588C197.54 35.588 197.176 35.684 196.848 35.876C196.528 36.06 196.272 36.32 196.08 36.656C195.896 36.992 195.804 37.38 195.804 37.82C195.804 38.26 195.896 38.652 196.08 38.996C196.264 39.332 196.52 39.596 196.848 39.788C197.176 39.972 197.54 40.064 197.94 40.064ZM205.65 41.072C205.018 41.072 204.45 40.932 203.946 40.652C203.442 40.372 203.046 39.988 202.758 39.5C202.478 39.004 202.338 38.444 202.338 37.82C202.338 37.196 202.478 36.64 202.758 36.152C203.046 35.656 203.442 35.272 203.946 35C204.45 34.72 205.018 34.58 205.65 34.58C206.282 34.58 206.846 34.72 207.342 35C207.846 35.272 208.238 35.656 208.518 36.152C208.806 36.64 208.95 37.196 208.95 37.82C208.95 38.444 208.806 39.004 208.518 39.5C208.238 39.988 207.846 40.372 207.342 40.652C206.846 40.932 206.282 41.072 205.65 41.072ZM205.65 40.064C206.058 40.064 206.422 39.972 206.742 39.788C207.07 39.596 207.326 39.332 207.51 38.996C207.694 38.652 207.786 38.26 207.786 37.82C207.786 37.38 207.694 36.992 207.51 36.656C207.326 36.312 207.07 36.048 206.742 35.864C206.422 35.68 206.058 35.588 205.65 35.588C205.242 35.588 204.874 35.68 204.546 35.864C204.226 36.048 203.97 36.312 203.778 36.656C203.594 36.992 203.502 37.38 203.502 37.82C203.502 38.26 203.594 38.652 203.778 38.996C203.97 39.332 204.226 39.596 204.546 39.788C204.874 39.972 205.242 40.064 205.65 40.064ZM210.614 34.64H211.766V39.272L215.666 34.64H216.71V41H215.558V36.368L211.67 41H210.614V34.64ZM223.686 35.648H221.358V41H220.206V35.648H217.878V34.64H223.686V35.648ZM230.33 37.856C230.33 37.944 230.322 38.06 230.306 38.204H225.146C225.218 38.764 225.462 39.216 225.878 39.56C226.302 39.896 226.826 40.064 227.45 40.064C228.21 40.064 228.822 39.808 229.286 39.296L229.922 40.04C229.634 40.376 229.274 40.632 228.842 40.808C228.418 40.984 227.942 41.072 227.414 41.072C226.742 41.072 226.146 40.936 225.626 40.664C225.106 40.384 224.702 39.996 224.414 39.5C224.134 39.004 223.994 38.444 223.994 37.82C223.994 37.204 224.13 36.648 224.402 36.152C224.682 35.656 225.062 35.272 225.542 35C226.03 34.72 226.578 34.58 227.186 34.58C227.794 34.58 228.334 34.72 228.806 35C229.286 35.272 229.658 35.656 229.922 36.152C230.194 36.648 230.33 37.216 230.33 37.856ZM227.186 35.552C226.634 35.552 226.17 35.72 225.794 36.056C225.426 36.392 225.21 36.832 225.146 37.376H229.226C229.162 36.84 228.942 36.404 228.566 36.068C228.198 35.724 227.738 35.552 227.186 35.552ZM237.472 34.64V41H236.32V35.648H233.584L233.512 37.064C233.472 37.92 233.396 38.636 233.284 39.212C233.172 39.78 232.988 40.236 232.732 40.58C232.476 40.924 232.12 41.096 231.664 41.096C231.456 41.096 231.22 41.06 230.956 40.988L231.028 40.016C231.132 40.04 231.228 40.052 231.316 40.052C231.636 40.052 231.876 39.912 232.036 39.632C232.196 39.352 232.3 39.02 232.348 38.636C232.396 38.252 232.44 37.704 232.48 36.992L232.588 34.64H237.472ZM242.64 36.8C243.448 36.808 244.064 36.992 244.488 37.352C244.912 37.712 245.124 38.22 245.124 38.876C245.124 39.564 244.892 40.096 244.428 40.472C243.972 40.84 243.316 41.02 242.46 41.012L239.7 41V34.64H240.852V36.788L242.64 36.8ZM242.364 40.136C242.884 40.144 243.276 40.04 243.54 39.824C243.812 39.608 243.948 39.288 243.948 38.864C243.948 38.448 243.816 38.144 243.552 37.952C243.296 37.76 242.9 37.66 242.364 37.652L240.852 37.628V40.124L242.364 40.136ZM246.602 34.64H247.754V37.34H251.378V34.64H252.53V41H251.378V38.336H247.754V41H246.602V34.64ZM257.038 34.58C257.918 34.58 258.59 34.796 259.054 35.228C259.526 35.66 259.762 36.304 259.762 37.16V41H258.67V40.16C258.478 40.456 258.202 40.684 257.842 40.844C257.49 40.996 257.07 41.072 256.582 41.072C255.87 41.072 255.298 40.9 254.866 40.556C254.442 40.212 254.23 39.76 254.23 39.2C254.23 38.64 254.434 38.192 254.842 37.856C255.25 37.512 255.898 37.34 256.786 37.34H258.61V37.112C258.61 36.616 258.466 36.236 258.178 35.972C257.89 35.708 257.466 35.576 256.906 35.576C256.53 35.576 256.162 35.64 255.802 35.768C255.442 35.888 255.138 36.052 254.89 36.26L254.41 35.396C254.738 35.132 255.13 34.932 255.586 34.796C256.042 34.652 256.526 34.58 257.038 34.58ZM256.774 40.184C257.214 40.184 257.594 40.088 257.914 39.896C258.234 39.696 258.466 39.416 258.61 39.056V38.168H256.834C255.858 38.168 255.37 38.496 255.37 39.152C255.37 39.472 255.494 39.724 255.742 39.908C255.99 40.092 256.334 40.184 256.774 40.184ZM266.936 34.64V41H265.904V38.984H264.056H263.924L262.532 41H261.296L262.844 38.828C262.364 38.684 261.996 38.448 261.74 38.12C261.484 37.784 261.356 37.368 261.356 36.872C261.356 36.144 261.604 35.592 262.1 35.216C262.596 34.832 263.28 34.64 264.152 34.64H266.936ZM262.532 36.908C262.532 37.332 262.664 37.648 262.928 37.856C263.2 38.056 263.604 38.156 264.14 38.156H265.904V35.648H264.188C263.084 35.648 262.532 36.068 262.532 36.908ZM274.879 38.312H273.559V41H272.407V34.64H273.559V37.328H274.903L276.967 34.64H278.203L275.791 37.7L278.371 41H277.015L274.879 38.312ZM282.092 41.072C281.46 41.072 280.892 40.932 280.388 40.652C279.884 40.372 279.488 39.988 279.2 39.5C278.92 39.004 278.78 38.444 278.78 37.82C278.78 37.196 278.92 36.64 279.2 36.152C279.488 35.656 279.884 35.272 280.388 35C280.892 34.72 281.46 34.58 282.092 34.58C282.724 34.58 283.288 34.72 283.784 35C284.288 35.272 284.68 35.656 284.96 36.152C285.248 36.64 285.392 37.196 285.392 37.82C285.392 38.444 285.248 39.004 284.96 39.5C284.68 39.988 284.288 40.372 283.784 40.652C283.288 40.932 282.724 41.072 282.092 41.072ZM282.092 40.064C282.5 40.064 282.864 39.972 283.184 39.788C283.512 39.596 283.768 39.332 283.952 38.996C284.136 38.652 284.228 38.26 284.228 37.82C284.228 37.38 284.136 36.992 283.952 36.656C283.768 36.312 283.512 36.048 283.184 35.864C282.864 35.68 282.5 35.588 282.092 35.588C281.684 35.588 281.316 35.68 280.988 35.864C280.668 36.048 280.412 36.312 280.22 36.656C280.036 36.992 279.944 37.38 279.944 37.82C279.944 38.26 280.036 38.652 280.22 38.996C280.412 39.332 280.668 39.596 280.988 39.788C281.316 39.972 281.684 40.064 282.092 40.064ZM294.387 34.64V41H293.343V36.356L290.967 40.28H290.463L288.111 36.344V41H287.055V34.64H288.243L290.739 38.936L293.307 34.64H294.387ZM302.521 34.64V41H301.369V35.648H297.781V41H296.629V34.64H302.521ZM307.018 34.58C307.898 34.58 308.57 34.796 309.034 35.228C309.506 35.66 309.742 36.304 309.742 37.16V41H308.65V40.16C308.458 40.456 308.182 40.684 307.822 40.844C307.47 40.996 307.05 41.072 306.562 41.072C305.85 41.072 305.278 40.9 304.846 40.556C304.422 40.212 304.21 39.76 304.21 39.2C304.21 38.64 304.414 38.192 304.822 37.856C305.23 37.512 305.878 37.34 306.766 37.34H308.59V37.112C308.59 36.616 308.446 36.236 308.158 35.972C307.87 35.708 307.446 35.576 306.886 35.576C306.51 35.576 306.142 35.64 305.782 35.768C305.422 35.888 305.118 36.052 304.87 36.26L304.39 35.396C304.718 35.132 305.11 34.932 305.566 34.796C306.022 34.652 306.506 34.58 307.018 34.58ZM306.754 40.184C307.194 40.184 307.574 40.088 307.894 39.896C308.214 39.696 308.446 39.416 308.59 39.056V38.168H306.814C305.838 38.168 305.35 38.496 305.35 39.152C305.35 39.472 305.474 39.724 305.722 39.908C305.97 40.092 306.314 40.184 306.754 40.184ZM311.817 34.64H312.969V37.34H316.593V34.64H317.745V41H316.593V38.336H312.969V41H311.817V34.64ZM319.985 34.64H321.137V39.272L325.037 34.64H326.081V41H324.929V36.368L321.041 41H319.985V34.64ZM333.417 34.64V41H332.385V38.984H330.537H330.405L329.013 41H327.777L329.325 38.828C328.845 38.684 328.477 38.448 328.221 38.12C327.965 37.784 327.837 37.368 327.837 36.872C327.837 36.144 328.085 35.592 328.581 35.216C329.077 34.832 329.761 34.64 330.633 34.64H333.417ZM329.013 36.908C329.013 37.332 329.145 37.648 329.409 37.856C329.681 38.056 330.085 38.156 330.621 38.156H332.385V35.648H330.669C329.565 35.648 329.013 36.068 329.013 36.908Z" fill="white"/>
<path fill-rule="evenodd" clip-rule="evenodd" d="M0 45V32.1434V28.9293L25.7131 0L40.2383 12.5886L51.4283 0L102.857 45H83.5717L51.4283 19.2848L49.8202 20.8929L38.5717 32.1434L38.5707 32.1424L25.7131 45V32.1434V28.9293L30.2517 23.8234L25.7131 19.2848L0 45Z" fill="#9238A8"/>
</svg>
