<svg width="222" height="46" viewBox="0 0 222 46" fill="none" xmlns="http://www.w3.org/2000/svg">
<path d="M1.44 26L5.536 1.872H11.744L16.576 14.736L21.376 1.872H27.584L31.68 26H25.44L23.36 12.112L17.664 26H15.168L9.76 12.112L7.68 26H1.44ZM39.301 9.584V26H33.509V9.584H39.301ZM33.125 3.28C33.125 2.832 33.2103 2.416 33.381 2.032C33.5517 1.62667 33.7863 1.27467 34.085 0.975998C34.3837 0.677331 34.725 0.442665 35.109 0.271999C35.5143 0.101332 35.941 0.0159988 36.389 0.0159988C36.837 0.0159988 37.253 0.101332 37.637 0.271999C38.0423 0.442665 38.3943 0.677331 38.693 0.975998C38.9917 1.27467 39.2263 1.62667 39.397 2.032C39.5677 2.416 39.653 2.832 39.653 3.28C39.653 3.728 39.5677 4.15467 39.397 4.56C39.2263 4.944 38.9917 5.28533 38.693 5.584C38.3943 5.88267 38.0423 6.11733 37.637 6.288C37.253 6.45867 36.837 6.544 36.389 6.544C35.941 6.544 35.5143 6.45867 35.109 6.288C34.725 6.11733 34.3837 5.88267 34.085 5.584C33.7863 5.28533 33.5517 4.944 33.381 4.56C33.2103 4.15467 33.125 3.728 33.125 3.28ZM59.579 9.936C58.1283 8.16533 56.3363 7.28 54.203 7.28C53.2643 7.28 52.3897 7.45067 51.579 7.792C50.7897 8.13333 50.107 8.60267 49.531 9.2C48.955 9.776 48.4963 10.4693 48.155 11.28C47.835 12.0907 47.675 12.9653 47.675 13.904C47.675 14.864 47.835 15.7493 48.155 16.56C48.4963 17.3707 48.955 18.0747 49.531 18.672C50.1283 19.2693 50.8217 19.7387 51.611 20.08C52.4003 20.4213 53.2537 20.592 54.171 20.592C56.1763 20.592 57.979 19.7387 59.579 18.032V25.456L58.939 25.68C57.979 26.0213 57.083 26.2667 56.251 26.416C55.419 26.5867 54.5977 26.672 53.787 26.672C52.123 26.672 50.523 26.3627 48.987 25.744C47.4723 25.104 46.1283 24.2187 44.955 23.088C43.803 21.936 42.875 20.5813 42.171 19.024C41.467 17.4453 41.115 15.728 41.115 13.872C41.115 12.016 41.4563 10.32 42.139 8.784C42.843 7.22667 43.771 5.89333 44.923 4.784C46.0963 3.65333 47.451 2.77867 48.987 2.16C50.523 1.52 52.1337 1.2 53.819 1.2C54.779 1.2 55.7177 1.30667 56.635 1.52C57.5737 1.712 58.555 2.02133 59.579 2.448V9.936ZM66.7788 17.744C66.7788 18.2773 66.8748 18.7787 67.0668 19.248C67.2588 19.696 67.5148 20.0907 67.8348 20.432C68.1761 20.7733 68.5708 21.04 69.0188 21.232C69.4881 21.424 69.9894 21.52 70.5228 21.52C71.0348 21.52 71.5148 21.424 71.9628 21.232C72.4321 21.04 72.8268 20.7733 73.1468 20.432C73.4881 20.0907 73.7548 19.696 73.9468 19.248C74.1601 18.8 74.2668 18.32 74.2668 17.808C74.2668 17.296 74.1601 16.816 73.9468 16.368C73.7548 15.8987 73.4881 15.4933 73.1468 15.152C72.8268 14.8107 72.4321 14.544 71.9628 14.352C71.5148 14.16 71.0348 14.064 70.5228 14.064C69.9894 14.064 69.4881 14.16 69.0188 14.352C68.5708 14.544 68.1761 14.8107 67.8348 15.152C67.5148 15.4933 67.2588 15.888 67.0668 16.336C66.8748 16.7627 66.7788 17.232 66.7788 17.744ZM74.0748 9.584H79.8988V26H74.0748V24.176C72.8374 25.7333 71.1628 26.512 69.0508 26.512C67.8561 26.512 66.7574 26.2987 65.7548 25.872C64.7521 25.424 63.8774 24.8053 63.1308 24.016C62.3841 23.2267 61.7974 22.2987 61.3708 21.232C60.9654 20.1653 60.7628 19.0027 60.7628 17.744C60.7628 16.5707 60.9654 15.4613 61.3708 14.416C61.7761 13.3493 62.3414 12.4213 63.0668 11.632C63.7921 10.8427 64.6561 10.224 65.6588 9.776C66.6614 9.30667 67.7708 9.072 68.9868 9.072C71.0348 9.072 72.7308 9.78667 74.0748 11.216V9.584ZM93.1202 13.808C92.0536 13.2533 91.0082 12.976 89.9842 12.976C89.4509 12.976 89.0136 13.0827 88.6722 13.296C88.3522 13.5093 88.1922 13.7973 88.1922 14.16C88.1922 14.352 88.2136 14.512 88.2562 14.64C88.3202 14.7467 88.4376 14.8533 88.6082 14.96C88.8002 15.0667 89.0669 15.1627 89.4082 15.248C89.7709 15.3333 90.2402 15.44 90.8162 15.568C92.4162 15.888 93.6109 16.464 94.4002 17.296C95.1896 18.1067 95.5842 19.152 95.5842 20.432C95.5842 21.392 95.3922 22.256 95.0082 23.024C94.6242 23.792 94.0909 24.4427 93.4082 24.976C92.7256 25.488 91.9042 25.8827 90.9442 26.16C89.9842 26.4587 88.9282 26.608 87.7762 26.608C85.5576 26.608 83.3709 25.9787 81.2162 24.72L83.3282 20.624C84.9496 21.7333 86.4856 22.288 87.9362 22.288C88.4696 22.288 88.9069 22.1707 89.2482 21.936C89.5896 21.7013 89.7602 21.4027 89.7602 21.04C89.7602 20.8267 89.7282 20.656 89.6642 20.528C89.6216 20.3787 89.5149 20.2507 89.3442 20.144C89.1736 20.016 88.9176 19.9093 88.5762 19.824C88.2562 19.7173 87.8296 19.6107 87.2962 19.504C85.5042 19.1413 84.2456 18.608 83.5202 17.904C82.8162 17.1787 82.4642 16.1867 82.4642 14.928C82.4642 14.0107 82.6349 13.1893 82.9762 12.464C83.3176 11.7173 83.8082 11.088 84.4482 10.576C85.0882 10.064 85.8562 9.66933 86.7522 9.392C87.6696 9.11467 88.6829 8.976 89.7922 8.976C91.6056 8.976 93.3656 9.328 95.0722 10.032L93.1202 13.808ZM102.298 17.744C102.298 18.2773 102.394 18.7787 102.586 19.248C102.778 19.696 103.034 20.0907 103.354 20.432C103.695 20.7733 104.09 21.04 104.538 21.232C105.007 21.424 105.508 21.52 106.042 21.52C106.554 21.52 107.034 21.424 107.482 21.232C107.951 21.04 108.346 20.7733 108.666 20.432C109.007 20.0907 109.274 19.696 109.466 19.248C109.679 18.8 109.786 18.32 109.786 17.808C109.786 17.296 109.679 16.816 109.466 16.368C109.274 15.8987 109.007 15.4933 108.666 15.152C108.346 14.8107 107.951 14.544 107.482 14.352C107.034 14.16 106.554 14.064 106.042 14.064C105.508 14.064 105.007 14.16 104.538 14.352C104.09 14.544 103.695 14.8107 103.354 15.152C103.034 15.4933 102.778 15.888 102.586 16.336C102.394 16.7627 102.298 17.232 102.298 17.744ZM109.594 9.584H115.418V26H109.594V24.176C108.356 25.7333 106.682 26.512 104.57 26.512C103.375 26.512 102.276 26.2987 101.274 25.872C100.271 25.424 99.3962 24.8053 98.6495 24.016C97.9028 23.2267 97.3162 22.2987 96.8895 21.232C96.4842 20.1653 96.2815 19.0027 96.2815 17.744C96.2815 16.5707 96.4842 15.4613 96.8895 14.416C97.2948 13.3493 97.8602 12.4213 98.5855 11.632C99.3108 10.8427 100.175 10.224 101.178 9.776C102.18 9.30667 103.29 9.072 104.506 9.072C106.554 9.072 108.25 9.78667 109.594 11.216V9.584Z" fill="#9238A8"/>
<path d="M133.85 11.184H142.906V1.872H149.178V26H142.906V16.048H133.85V26H127.578V1.872H133.85V11.184ZM157.562 17.712C157.562 18.2667 157.658 18.7787 157.85 19.248C158.064 19.696 158.33 20.0907 158.65 20.432C158.992 20.7733 159.386 21.04 159.834 21.232C160.304 21.424 160.794 21.52 161.306 21.52C161.818 21.52 162.298 21.424 162.746 21.232C163.216 21.04 163.61 20.7733 163.93 20.432C164.272 20.0907 164.538 19.696 164.73 19.248C164.944 18.7787 165.05 18.2773 165.05 17.744C165.05 17.232 164.944 16.752 164.73 16.304C164.538 15.8347 164.272 15.4293 163.93 15.088C163.61 14.7467 163.216 14.48 162.746 14.288C162.298 14.096 161.818 14 161.306 14C160.794 14 160.304 14.096 159.834 14.288C159.386 14.48 158.992 14.7467 158.65 15.088C158.33 15.4293 158.064 15.824 157.85 16.272C157.658 16.72 157.562 17.2 157.562 17.712ZM151.45 17.648C151.45 16.432 151.696 15.3013 152.186 14.256C152.677 13.1893 153.36 12.272 154.234 11.504C155.109 10.7147 156.144 10.096 157.338 9.648C158.554 9.2 159.877 8.976 161.306 8.976C162.714 8.976 164.016 9.2 165.21 9.648C166.426 10.0747 167.472 10.6827 168.346 11.472C169.242 12.24 169.936 13.168 170.426 14.256C170.917 15.3227 171.162 16.5067 171.162 17.808C171.162 19.1093 170.906 20.304 170.394 21.392C169.904 22.4587 169.221 23.3867 168.346 24.176C167.472 24.944 166.416 25.5413 165.178 25.968C163.962 26.3947 162.64 26.608 161.21 26.608C159.802 26.608 158.501 26.3947 157.306 25.968C156.112 25.5413 155.077 24.9333 154.202 24.144C153.349 23.3547 152.677 22.416 152.186 21.328C151.696 20.2187 151.45 18.992 151.45 17.648ZM172.897 9.584H178.689V11.6C180.267 10.0853 182.038 9.328 184.001 9.328C186.433 9.328 188.289 10.352 189.569 12.4C190.87 10.3307 192.726 9.296 195.137 9.296C195.905 9.296 196.63 9.41333 197.313 9.648C197.995 9.86133 198.582 10.2133 199.073 10.704C199.563 11.1733 199.947 11.792 200.225 12.56C200.523 13.328 200.673 14.256 200.673 15.344V26H194.881V17.904C194.881 17.072 194.817 16.3893 194.689 15.856C194.582 15.3227 194.411 14.9067 194.177 14.608C193.963 14.3093 193.707 14.1067 193.409 14C193.11 13.8933 192.79 13.84 192.449 13.84C190.593 13.84 189.665 15.1947 189.665 17.904V26H183.873V17.904C183.873 17.072 183.819 16.3893 183.713 15.856C183.606 15.3013 183.446 14.864 183.233 14.544C183.041 14.224 182.785 14.0107 182.465 13.904C182.145 13.776 181.771 13.712 181.345 13.712C180.982 13.712 180.641 13.7653 180.321 13.872C180.001 13.9787 179.713 14.192 179.457 14.512C179.222 14.8107 179.03 15.2373 178.881 15.792C178.753 16.3253 178.689 17.0293 178.689 17.904V26H172.897V9.584ZM215.047 15.408C214.855 14.5973 214.46 13.9467 213.863 13.456C213.265 12.9653 212.54 12.72 211.687 12.72C210.791 12.72 210.055 12.9547 209.479 13.424C208.924 13.8933 208.572 14.5547 208.423 15.408H215.047ZM208.263 18.768C208.263 21.264 209.436 22.512 211.783 22.512C213.041 22.512 213.991 22 214.631 20.976H220.231C219.1 24.7307 216.273 26.608 211.751 26.608C210.364 26.608 209.095 26.4053 207.943 26C206.791 25.5733 205.799 24.976 204.967 24.208C204.156 23.44 203.527 22.5227 203.079 21.456C202.631 20.3893 202.407 19.1947 202.407 17.872C202.407 16.5067 202.62 15.28 203.047 14.192C203.473 13.0827 204.081 12.144 204.871 11.376C205.66 10.608 206.609 10.0213 207.719 9.616C208.849 9.18933 210.119 8.976 211.527 8.976C212.913 8.976 214.161 9.18933 215.271 9.616C216.38 10.0213 217.319 10.6187 218.087 11.408C218.855 12.1973 219.441 13.168 219.847 14.32C220.252 15.4507 220.455 16.7307 220.455 18.16V18.768H208.263Z" fill="white"/>
<path opacity="0.7" d="M5.184 42.096C4.32 42.096 3.54667 41.9093 2.864 41.536C2.192 41.1627 1.664 40.6507 1.28 40C0.896 39.3387 0.704 38.592 0.704 37.76C0.704 36.928 0.896 36.1867 1.28 35.536C1.664 34.8747 2.192 34.3627 2.864 34C3.54667 33.6267 4.32 33.44 5.184 33.44C5.952 33.44 6.63467 33.5947 7.232 33.904C7.84 34.2133 8.30933 34.6613 8.64 35.248L7.472 36C7.20533 35.5947 6.87467 35.2907 6.48 35.088C6.08533 34.8853 5.648 34.784 5.168 34.784C4.61333 34.784 4.112 34.9067 3.664 35.152C3.22667 35.3973 2.88 35.7493 2.624 36.208C2.37867 36.656 2.256 37.1733 2.256 37.76C2.256 38.3573 2.37867 38.8853 2.624 39.344C2.88 39.792 3.22667 40.1387 3.664 40.384C4.112 40.6293 4.61333 40.752 5.168 40.752C5.648 40.752 6.08533 40.6507 6.48 40.448C6.87467 40.2453 7.20533 39.9413 7.472 39.536L8.64 40.272C8.30933 40.8587 7.84 41.312 7.232 41.632C6.63467 41.9413 5.952 42.096 5.184 42.096ZM16.8393 34.864H13.7352V42H12.1993V34.864H9.09525V33.52H16.8393V34.864ZM22.9059 33.44C23.7272 33.44 24.4632 33.6213 25.1139 33.984C25.7645 34.3467 26.2712 34.8533 26.6339 35.504C27.0072 36.1547 27.1939 36.9067 27.1939 37.76C27.1939 38.6133 27.0072 39.3707 26.6339 40.032C26.2712 40.6827 25.7645 41.1893 25.1139 41.552C24.4632 41.9147 23.7272 42.096 22.9059 42.096C22.2979 42.096 21.7379 41.9787 21.2259 41.744C20.7245 41.5093 20.2979 41.168 19.9459 40.72V45.104H18.4099V33.52H19.8819V34.864C20.2232 34.3947 20.6552 34.0427 21.1779 33.808C21.7005 33.5627 22.2765 33.44 22.9059 33.44ZM22.7779 40.752C23.3219 40.752 23.8072 40.6293 24.2339 40.384C24.6712 40.128 25.0125 39.776 25.2579 39.328C25.5139 38.8693 25.6419 38.3467 25.6419 37.76C25.6419 37.1733 25.5139 36.656 25.2579 36.208C25.0125 35.7493 24.6712 35.3973 24.2339 35.152C23.8072 34.9067 23.3219 34.784 22.7779 34.784C22.2445 34.784 21.7592 34.912 21.3219 35.168C20.8952 35.4133 20.5539 35.76 20.2979 36.208C20.0525 36.656 19.9299 37.1733 19.9299 37.76C19.9299 38.3467 20.0525 38.8693 20.2979 39.328C20.5432 39.776 20.8845 40.128 21.3219 40.384C21.7592 40.6293 22.2445 40.752 22.7779 40.752ZM33.0575 42.096C32.2148 42.096 31.4575 41.9093 30.7855 41.536C30.1135 41.1627 29.5855 40.6507 29.2015 40C28.8282 39.3387 28.6415 38.592 28.6415 37.76C28.6415 36.928 28.8282 36.1867 29.2015 35.536C29.5855 34.8747 30.1135 34.3627 30.7855 34C31.4575 33.6267 32.2148 33.44 33.0575 33.44C33.9002 33.44 34.6522 33.6267 35.3135 34C35.9855 34.3627 36.5082 34.8747 36.8815 35.536C37.2655 36.1867 37.4575 36.928 37.4575 37.76C37.4575 38.592 37.2655 39.3387 36.8815 40C36.5082 40.6507 35.9855 41.1627 35.3135 41.536C34.6522 41.9093 33.9002 42.096 33.0575 42.096ZM33.0575 40.752C33.6015 40.752 34.0868 40.6293 34.5135 40.384C34.9508 40.128 35.2922 39.776 35.5375 39.328C35.7828 38.8693 35.9055 38.3467 35.9055 37.76C35.9055 37.1733 35.7828 36.656 35.5375 36.208C35.2922 35.7493 34.9508 35.3973 34.5135 35.152C34.0868 34.9067 33.6015 34.784 33.0575 34.784C32.5135 34.784 32.0228 34.9067 31.5855 35.152C31.1588 35.3973 30.8175 35.7493 30.5615 36.208C30.3162 36.656 30.1935 37.1733 30.1935 37.76C30.1935 38.3467 30.3162 38.8693 30.5615 39.328C30.8175 39.776 31.1588 40.128 31.5855 40.384C32.0228 40.6293 32.5135 40.752 33.0575 40.752ZM39.6755 33.52H41.2115V39.696L46.4115 33.52H47.8035V42H46.2675V35.824L41.0835 42H39.6755V33.52ZM57.1049 34.864H54.0009V42H52.4649V34.864H49.3609V33.52H57.1049V34.864ZM65.9645 37.808C65.9645 37.9253 65.9538 38.08 65.9325 38.272H59.0525C59.1485 39.0187 59.4738 39.6213 60.0285 40.08C60.5938 40.528 61.2925 40.752 62.1245 40.752C63.1378 40.752 63.9538 40.4107 64.5725 39.728L65.4205 40.72C65.0365 41.168 64.5565 41.5093 63.9805 41.744C63.4152 41.9787 62.7805 42.096 62.0765 42.096C61.1805 42.096 60.3858 41.9147 59.6925 41.552C58.9992 41.1787 58.4605 40.6613 58.0765 40C57.7032 39.3387 57.5165 38.592 57.5165 37.76C57.5165 36.9387 57.6978 36.1973 58.0605 35.536C58.4338 34.8747 58.9405 34.3627 59.5805 34C60.2312 33.6267 60.9618 33.44 61.7725 33.44C62.5832 33.44 63.3032 33.6267 63.9325 34C64.5725 34.3627 65.0685 34.8747 65.4205 35.536C65.7832 36.1973 65.9645 36.9547 65.9645 37.808ZM61.7725 34.736C61.0365 34.736 60.4178 34.96 59.9165 35.408C59.4258 35.856 59.1378 36.4427 59.0525 37.168H64.4925C64.4072 36.4533 64.1138 35.872 63.6125 35.424C63.1218 34.9653 62.5085 34.736 61.7725 34.736ZM75.4868 33.52V42H73.9508V34.864H70.3028L70.2068 36.752C70.1534 37.8933 70.0521 38.848 69.9028 39.616C69.7534 40.3733 69.5081 40.9813 69.1668 41.44C68.8254 41.8987 68.3508 42.128 67.7428 42.128C67.4654 42.128 67.1508 42.08 66.7988 41.984L66.8948 40.688C67.0334 40.72 67.1614 40.736 67.2788 40.736C67.7054 40.736 68.0254 40.5493 68.2388 40.176C68.4521 39.8027 68.5908 39.36 68.6548 38.848C68.7188 38.336 68.7774 37.6053 68.8307 36.656L68.9748 33.52H75.4868ZM82.3768 36.4C83.4541 36.4107 84.2754 36.656 84.8408 37.136C85.4061 37.616 85.6888 38.2933 85.6888 39.168C85.6888 40.0853 85.3794 40.7947 84.7608 41.296C84.1528 41.7867 83.2781 42.0267 82.1368 42.016L78.4568 42V33.52H79.9928V36.384L82.3768 36.4ZM82.0088 40.848C82.7021 40.8587 83.2248 40.72 83.5768 40.432C83.9394 40.144 84.1208 39.7173 84.1208 39.152C84.1208 38.5973 83.9448 38.192 83.5928 37.936C83.2514 37.68 82.7234 37.5467 82.0088 37.536L79.9928 37.504V40.832L82.0088 40.848ZM87.6599 33.52H89.1959V37.12H94.0279V33.52H95.5639V42H94.0279V38.448H89.1959V42H87.6599V33.52ZM101.575 33.44C102.748 33.44 103.644 33.728 104.263 34.304C104.892 34.88 105.207 35.7387 105.207 36.88V42H103.751V40.88C103.495 41.2747 103.127 41.5787 102.647 41.792C102.177 41.9947 101.617 42.096 100.967 42.096C100.017 42.096 99.2545 41.8667 98.6785 41.408C98.1132 40.9493 97.8305 40.3467 97.8305 39.6C97.8305 38.8533 98.1025 38.256 98.6465 37.808C99.1905 37.3493 100.055 37.12 101.239 37.12H103.671V36.816C103.671 36.1547 103.479 35.648 103.095 35.296C102.711 34.944 102.145 34.768 101.399 34.768C100.897 34.768 100.407 34.8533 99.9265 35.024C99.4465 35.184 99.0412 35.4027 98.7105 35.68L98.0705 34.528C98.5078 34.176 99.0305 33.9093 99.6385 33.728C100.247 33.536 100.892 33.44 101.575 33.44ZM101.223 40.912C101.809 40.912 102.316 40.784 102.743 40.528C103.169 40.2613 103.479 39.888 103.671 39.408V38.224H101.303C100.001 38.224 99.3505 38.6613 99.3505 39.536C99.3505 39.9627 99.5158 40.2987 99.8465 40.544C100.177 40.7893 100.636 40.912 101.223 40.912ZM114.772 33.52V42H113.396V39.312H110.932H110.756L108.9 42H107.252L109.316 39.104C108.676 38.912 108.186 38.5973 107.844 38.16C107.503 37.712 107.332 37.1573 107.332 36.496C107.332 35.5253 107.663 34.7893 108.324 34.288C108.986 33.776 109.898 33.52 111.06 33.52H114.772ZM108.9 36.544C108.9 37.1093 109.076 37.5307 109.428 37.808C109.791 38.0747 110.33 38.208 111.044 38.208H113.396V34.864H111.108C109.636 34.864 108.9 35.424 108.9 36.544ZM125.362 38.416H123.602V42H122.066V33.52H123.602V37.104H125.394L128.146 33.52H129.794L126.578 37.6L130.018 42H128.21L125.362 38.416ZM134.979 42.096C134.137 42.096 133.379 41.9093 132.707 41.536C132.035 41.1627 131.507 40.6507 131.123 40C130.75 39.3387 130.563 38.592 130.563 37.76C130.563 36.928 130.75 36.1867 131.123 35.536C131.507 34.8747 132.035 34.3627 132.707 34C133.379 33.6267 134.137 33.44 134.979 33.44C135.822 33.44 136.574 33.6267 137.235 34C137.907 34.3627 138.43 34.8747 138.803 35.536C139.187 36.1867 139.379 36.928 139.379 37.76C139.379 38.592 139.187 39.3387 138.803 40C138.43 40.6507 137.907 41.1627 137.235 41.536C136.574 41.9093 135.822 42.096 134.979 42.096ZM134.979 40.752C135.523 40.752 136.009 40.6293 136.435 40.384C136.873 40.128 137.214 39.776 137.459 39.328C137.705 38.8693 137.827 38.3467 137.827 37.76C137.827 37.1733 137.705 36.656 137.459 36.208C137.214 35.7493 136.873 35.3973 136.435 35.152C136.009 34.9067 135.523 34.784 134.979 34.784C134.435 34.784 133.945 34.9067 133.507 35.152C133.081 35.3973 132.739 35.7493 132.483 36.208C132.238 36.656 132.115 37.1733 132.115 37.76C132.115 38.3467 132.238 38.8693 132.483 39.328C132.739 39.776 133.081 40.128 133.507 40.384C133.945 40.6293 134.435 40.752 134.979 40.752ZM151.373 33.52V42H149.981V35.808L146.813 41.04H146.141L143.005 35.792V42H141.597V33.52H143.181L146.509 39.248L149.933 33.52H151.373ZM162.219 33.52V42H160.683V34.864H155.899V42H154.363V33.52H162.219ZM168.215 33.44C169.388 33.44 170.284 33.728 170.903 34.304C171.532 34.88 171.847 35.7387 171.847 36.88V42H170.391V40.88C170.135 41.2747 169.767 41.5787 169.287 41.792C168.818 41.9947 168.258 42.096 167.607 42.096C166.658 42.096 165.895 41.8667 165.319 41.408C164.754 40.9493 164.471 40.3467 164.471 39.6C164.471 38.8533 164.743 38.256 165.287 37.808C165.831 37.3493 166.695 37.12 167.879 37.12H170.311V36.816C170.311 36.1547 170.119 35.648 169.735 35.296C169.351 34.944 168.786 34.768 168.039 34.768C167.538 34.768 167.047 34.8533 166.567 35.024C166.087 35.184 165.682 35.4027 165.351 35.68L164.711 34.528C165.148 34.176 165.671 33.9093 166.279 33.728C166.887 33.536 167.532 33.44 168.215 33.44ZM167.863 40.912C168.45 40.912 168.956 40.784 169.383 40.528C169.81 40.2613 170.119 39.888 170.311 39.408V38.224H167.943C166.642 38.224 165.991 38.6613 165.991 39.536C165.991 39.9627 166.156 40.2987 166.487 40.544C166.818 40.7893 167.276 40.912 167.863 40.912ZM174.613 33.52H176.149V37.12H180.981V33.52H182.517V42H180.981V38.448H176.149V42H174.613V33.52ZM185.504 33.52H187.04V39.696L192.24 33.52H193.632V42H192.096V35.824L186.912 42H185.504V33.52ZM203.413 33.52V42H202.037V39.312H199.573H199.397L197.541 42H195.893L197.957 39.104C197.317 38.912 196.826 38.5973 196.485 38.16C196.144 37.712 195.973 37.1573 195.973 36.496C195.973 35.5253 196.304 34.7893 196.965 34.288C197.626 33.776 198.538 33.52 199.701 33.52H203.413ZM197.541 36.544C197.541 37.1093 197.717 37.5307 198.069 37.808C198.432 38.0747 198.97 38.208 199.685 38.208H202.037V34.864H199.749C198.277 34.864 197.541 35.424 197.541 36.544Z" fill="white"/>
</svg>
