<svg width="217" height="31" viewBox="0 0 217 31" fill="none" xmlns="http://www.w3.org/2000/svg">
<path fill-rule="evenodd" clip-rule="evenodd" d="M0.5 28V20.8575V19.0718L14.7851 3L22.8544 9.99346L29.0709 3L57.6421 28H46.9283L29.0709 13.7138L28.1777 14.607L28.1779 14.6072L21.9287 20.8575L21.928 20.8567L14.7847 28V20.8575V19.0718L17.3063 16.235L14.7851 13.7138L0.5 28Z" fill="white"/>
<path d="M68.5426 17L71.1026 1.92H74.9826L78.0026 9.96L81.0026 1.92H84.8826L87.4426 17H83.5426L82.2426 8.32L78.6826 17H77.1226L73.7426 8.32L72.4426 17H68.5426ZM93.2057 6.74V17H89.5857V6.74H93.2057ZM89.3457 2.8C89.3457 2.52 89.399 2.26 89.5057 2.02C89.6124 1.76667 89.759 1.54667 89.9457 1.36C90.1324 1.17333 90.3457 1.02667 90.5857 0.92C90.839 0.813333 91.1057 0.759999 91.3857 0.759999C91.6657 0.759999 91.9257 0.813333 92.1657 0.92C92.419 1.02667 92.639 1.17333 92.8257 1.36C93.0124 1.54667 93.159 1.76667 93.2657 2.02C93.3724 2.26 93.4257 2.52 93.4257 2.8C93.4257 3.08 93.3724 3.34667 93.2657 3.6C93.159 3.84 93.0124 4.05333 92.8257 4.24C92.639 4.42667 92.419 4.57333 92.1657 4.68C91.9257 4.78667 91.6657 4.84 91.3857 4.84C91.1057 4.84 90.839 4.78667 90.5857 4.68C90.3457 4.57333 90.1324 4.42667 89.9457 4.24C89.759 4.05333 89.6124 3.84 89.5057 3.6C89.399 3.34667 89.3457 3.08 89.3457 2.8ZM106.879 6.96C105.973 5.85333 104.853 5.3 103.519 5.3C102.933 5.3 102.386 5.40667 101.879 5.62C101.386 5.83333 100.959 6.12667 100.599 6.5C100.239 6.86 99.9528 7.29333 99.7395 7.8C99.5395 8.30667 99.4395 8.85333 99.4395 9.44C99.4395 10.04 99.5395 10.5933 99.7395 11.1C99.9528 11.6067 100.239 12.0467 100.599 12.42C100.973 12.7933 101.406 13.0867 101.899 13.3C102.393 13.5133 102.926 13.62 103.499 13.62C104.753 13.62 105.879 13.0867 106.879 12.02V16.66L106.479 16.8C105.879 17.0133 105.319 17.1667 104.799 17.26C104.279 17.3667 103.766 17.42 103.259 17.42C102.219 17.42 101.219 17.2267 100.259 16.84C99.3128 16.44 98.4728 15.8867 97.7395 15.18C97.0195 14.46 96.4395 13.6133 95.9995 12.64C95.5595 11.6533 95.3395 10.58 95.3395 9.42C95.3395 8.26 95.5528 7.2 95.9795 6.24C96.4195 5.26667 96.9995 4.43333 97.7195 3.74C98.4528 3.03333 99.2995 2.48667 100.259 2.1C101.219 1.7 102.226 1.5 103.279 1.5C103.879 1.5 104.466 1.56667 105.039 1.7C105.626 1.82 106.239 2.01333 106.879 2.28V6.96ZM112.379 11.84C112.379 12.1733 112.439 12.4867 112.559 12.78C112.679 13.06 112.839 13.3067 113.039 13.52C113.253 13.7333 113.499 13.9 113.779 14.02C114.073 14.14 114.386 14.2 114.719 14.2C115.039 14.2 115.339 14.14 115.619 14.02C115.913 13.9 116.159 13.7333 116.359 13.52C116.573 13.3067 116.739 13.06 116.859 12.78C116.993 12.5 117.059 12.2 117.059 11.88C117.059 11.56 116.993 11.26 116.859 10.98C116.739 10.6867 116.573 10.4333 116.359 10.22C116.159 10.0067 115.913 9.84 115.619 9.72C115.339 9.6 115.039 9.54 114.719 9.54C114.386 9.54 114.073 9.6 113.779 9.72C113.499 9.84 113.253 10.0067 113.039 10.22C112.839 10.4333 112.679 10.68 112.559 10.96C112.439 11.2267 112.379 11.52 112.379 11.84ZM116.939 6.74H120.579V17H116.939V15.86C116.166 16.8333 115.119 17.32 113.799 17.32C113.053 17.32 112.366 17.1867 111.739 16.92C111.113 16.64 110.566 16.2533 110.099 15.76C109.633 15.2667 109.266 14.6867 108.999 14.02C108.746 13.3533 108.619 12.6267 108.619 11.84C108.619 11.1067 108.746 10.4133 108.999 9.76C109.253 9.09333 109.606 8.51333 110.059 8.02C110.513 7.52667 111.053 7.14 111.679 6.86C112.306 6.56667 112.999 6.42 113.759 6.42C115.039 6.42 116.099 6.86667 116.939 7.76V6.74ZM129.843 9.38C129.176 9.03333 128.523 8.86 127.883 8.86C127.549 8.86 127.276 8.92667 127.063 9.06C126.863 9.19333 126.763 9.37333 126.763 9.6C126.763 9.72 126.776 9.82 126.803 9.9C126.843 9.96667 126.916 10.0333 127.023 10.1C127.143 10.1667 127.309 10.2267 127.523 10.28C127.749 10.3333 128.043 10.4 128.403 10.48C129.403 10.68 130.149 11.04 130.643 11.56C131.136 12.0667 131.383 12.72 131.383 13.52C131.383 14.12 131.263 14.66 131.023 15.14C130.783 15.62 130.449 16.0267 130.023 16.36C129.596 16.68 129.083 16.9267 128.483 17.1C127.883 17.2867 127.223 17.38 126.503 17.38C125.116 17.38 123.749 16.9867 122.403 16.2L123.723 13.64C124.736 14.3333 125.696 14.68 126.603 14.68C126.936 14.68 127.209 14.6067 127.423 14.46C127.636 14.3133 127.743 14.1267 127.743 13.9C127.743 13.7667 127.723 13.66 127.683 13.58C127.656 13.4867 127.589 13.4067 127.483 13.34C127.376 13.26 127.216 13.1933 127.003 13.14C126.803 13.0733 126.536 13.0067 126.203 12.94C125.083 12.7133 124.296 12.38 123.843 11.94C123.403 11.4867 123.183 10.8667 123.183 10.08C123.183 9.50667 123.289 8.99333 123.503 8.54C123.716 8.07333 124.023 7.68 124.423 7.36C124.823 7.04 125.303 6.79333 125.863 6.62C126.436 6.44667 127.069 6.36 127.763 6.36C128.896 6.36 129.996 6.58 131.063 7.02L129.843 9.38ZM136.579 11.84C136.579 12.1733 136.639 12.4867 136.759 12.78C136.879 13.06 137.039 13.3067 137.239 13.52C137.452 13.7333 137.699 13.9 137.979 14.02C138.272 14.14 138.585 14.2 138.919 14.2C139.239 14.2 139.539 14.14 139.819 14.02C140.112 13.9 140.359 13.7333 140.559 13.52C140.772 13.3067 140.939 13.06 141.059 12.78C141.192 12.5 141.259 12.2 141.259 11.88C141.259 11.56 141.192 11.26 141.059 10.98C140.939 10.6867 140.772 10.4333 140.559 10.22C140.359 10.0067 140.112 9.84 139.819 9.72C139.539 9.6 139.239 9.54 138.919 9.54C138.585 9.54 138.272 9.6 137.979 9.72C137.699 9.84 137.452 10.0067 137.239 10.22C137.039 10.4333 136.879 10.68 136.759 10.96C136.639 11.2267 136.579 11.52 136.579 11.84ZM141.139 6.74H144.779V17H141.139V15.86C140.365 16.8333 139.319 17.32 137.999 17.32C137.252 17.32 136.565 17.1867 135.939 16.92C135.312 16.64 134.765 16.2533 134.299 15.76C133.832 15.2667 133.465 14.6867 133.199 14.02C132.945 13.3533 132.819 12.6267 132.819 11.84C132.819 11.1067 132.945 10.4133 133.199 9.76C133.452 9.09333 133.805 8.51333 134.259 8.02C134.712 7.52667 135.252 7.14 135.879 6.86C136.505 6.56667 137.199 6.42 137.959 6.42C139.239 6.42 140.299 6.86667 141.139 7.76V6.74ZM158.299 7.74H163.959V1.92H167.879V17H163.959V10.78H158.299V17H154.379V1.92H158.299V7.74ZM174.119 11.82C174.119 12.1667 174.179 12.4867 174.299 12.78C174.432 13.06 174.599 13.3067 174.799 13.52C175.012 13.7333 175.259 13.9 175.539 14.02C175.832 14.14 176.139 14.2 176.459 14.2C176.779 14.2 177.079 14.14 177.359 14.02C177.652 13.9 177.899 13.7333 178.099 13.52C178.312 13.3067 178.479 13.06 178.599 12.78C178.732 12.4867 178.799 12.1733 178.799 11.84C178.799 11.52 178.732 11.22 178.599 10.94C178.479 10.6467 178.312 10.3933 178.099 10.18C177.899 9.96667 177.652 9.8 177.359 9.68C177.079 9.56 176.779 9.5 176.459 9.5C176.139 9.5 175.832 9.56 175.539 9.68C175.259 9.8 175.012 9.96667 174.799 10.18C174.599 10.3933 174.432 10.64 174.299 10.92C174.179 11.2 174.119 11.5 174.119 11.82ZM170.299 11.78C170.299 11.02 170.452 10.3133 170.759 9.66C171.066 8.99333 171.492 8.42 172.039 7.94C172.586 7.44667 173.232 7.06 173.979 6.78C174.739 6.5 175.566 6.36 176.459 6.36C177.339 6.36 178.152 6.5 178.899 6.78C179.659 7.04667 180.312 7.42667 180.859 7.92C181.419 8.4 181.852 8.98 182.159 9.66C182.466 10.3267 182.619 11.0667 182.619 11.88C182.619 12.6933 182.459 13.44 182.139 14.12C181.832 14.7867 181.406 15.3667 180.859 15.86C180.312 16.34 179.652 16.7133 178.879 16.98C178.119 17.2467 177.292 17.38 176.399 17.38C175.519 17.38 174.706 17.2467 173.959 16.98C173.212 16.7133 172.566 16.3333 172.019 15.84C171.486 15.3467 171.066 14.76 170.759 14.08C170.452 13.3867 170.299 12.62 170.299 11.78ZM184.703 6.74H188.323V8C189.31 7.05333 190.416 6.58 191.643 6.58C193.163 6.58 194.323 7.22 195.123 8.5C195.936 7.20667 197.096 6.56 198.603 6.56C199.083 6.56 199.536 6.63333 199.963 6.78C200.39 6.91333 200.756 7.13333 201.063 7.44C201.37 7.73333 201.61 8.12 201.783 8.6C201.97 9.08 202.063 9.66 202.063 10.34V17H198.443V11.94C198.443 11.42 198.403 10.9933 198.323 10.66C198.256 10.3267 198.15 10.0667 198.003 9.88C197.87 9.69333 197.71 9.56667 197.523 9.5C197.336 9.43333 197.136 9.4 196.923 9.4C195.763 9.4 195.183 10.2467 195.183 11.94V17H191.563V11.94C191.563 11.42 191.53 10.9933 191.463 10.66C191.396 10.3133 191.296 10.04 191.163 9.84C191.043 9.64 190.883 9.50667 190.683 9.44C190.483 9.36 190.25 9.32 189.983 9.32C189.756 9.32 189.543 9.35333 189.343 9.42C189.143 9.48667 188.963 9.62 188.803 9.82C188.656 10.0067 188.536 10.2733 188.443 10.62C188.363 10.9533 188.323 11.3933 188.323 11.94V17H184.703V6.74ZM212.047 10.38C211.927 9.87333 211.68 9.46667 211.307 9.16C210.933 8.85333 210.48 8.7 209.947 8.7C209.387 8.7 208.927 8.84667 208.567 9.14C208.22 9.43333 208 9.84667 207.907 10.38H212.047ZM207.807 12.48C207.807 14.04 208.54 14.82 210.007 14.82C210.793 14.82 211.387 14.5 211.787 13.86H215.287C214.58 16.2067 212.813 17.38 209.987 17.38C209.12 17.38 208.327 17.2533 207.607 17C206.887 16.7333 206.267 16.36 205.747 15.88C205.24 15.4 204.847 14.8267 204.567 14.16C204.287 13.4933 204.147 12.7467 204.147 11.92C204.147 11.0667 204.28 10.3 204.547 9.62C204.813 8.92667 205.193 8.34 205.687 7.86C206.18 7.38 206.773 7.01333 207.467 6.76C208.173 6.49333 208.967 6.36 209.847 6.36C210.713 6.36 211.493 6.49333 212.187 6.76C212.88 7.01333 213.467 7.38667 213.947 7.88C214.427 8.37333 214.793 8.98 215.047 9.7C215.3 10.4067 215.427 11.2067 215.427 12.1V12.48H207.807Z" fill="white"/>
<path opacity="0.7" d="M80.8626 29.06C80.3226 29.06 79.8392 28.9433 79.4126 28.71C78.9926 28.4767 78.6626 28.1567 78.4226 27.75C78.1826 27.3367 78.0626 26.87 78.0626 26.35C78.0626 25.83 78.1826 25.3667 78.4226 24.96C78.6626 24.5467 78.9926 24.2267 79.4126 24C79.8392 23.7667 80.3226 23.65 80.8626 23.65C81.3426 23.65 81.7692 23.7467 82.1426 23.94C82.5226 24.1333 82.8159 24.4133 83.0226 24.78L82.2926 25.25C82.1259 24.9967 81.9192 24.8067 81.6726 24.68C81.4259 24.5533 81.1526 24.49 80.8526 24.49C80.5059 24.49 80.1926 24.5667 79.9126 24.72C79.6392 24.8733 79.4226 25.0933 79.2626 25.38C79.1092 25.66 79.0326 25.9833 79.0326 26.35C79.0326 26.7233 79.1092 27.0533 79.2626 27.34C79.4226 27.62 79.6392 27.8367 79.9126 27.99C80.1926 28.1433 80.5059 28.22 80.8526 28.22C81.1526 28.22 81.4259 28.1567 81.6726 28.03C81.9192 27.9033 82.1259 27.7133 82.2926 27.46L83.0226 27.92C82.8159 28.2867 82.5226 28.57 82.1426 28.77C81.7692 28.9633 81.3426 29.06 80.8626 29.06ZM88.2355 24.54H86.2955V29H85.3355V24.54H83.3955V23.7H88.2355V24.54ZM92.0271 23.65C92.5404 23.65 93.0004 23.7633 93.4071 23.99C93.8138 24.2167 94.1304 24.5333 94.3571 24.94C94.5904 25.3467 94.7071 25.8167 94.7071 26.35C94.7071 26.8833 94.5904 27.3567 94.3571 27.77C94.1304 28.1767 93.8138 28.4933 93.4071 28.72C93.0004 28.9467 92.5404 29.06 92.0271 29.06C91.6471 29.06 91.2971 28.9867 90.9771 28.84C90.6638 28.6933 90.3971 28.48 90.1771 28.2V30.94H89.2171V23.7H90.1371V24.54C90.3504 24.2467 90.6204 24.0267 90.9471 23.88C91.2738 23.7267 91.6338 23.65 92.0271 23.65ZM91.9471 28.22C92.2871 28.22 92.5904 28.1433 92.8571 27.99C93.1304 27.83 93.3438 27.61 93.4971 27.33C93.6571 27.0433 93.7371 26.7167 93.7371 26.35C93.7371 25.9833 93.6571 25.66 93.4971 25.38C93.3438 25.0933 93.1304 24.8733 92.8571 24.72C92.5904 24.5667 92.2871 24.49 91.9471 24.49C91.6138 24.49 91.3104 24.57 91.0371 24.73C90.7704 24.8833 90.5571 25.1 90.3971 25.38C90.2438 25.66 90.1671 25.9833 90.1671 26.35C90.1671 26.7167 90.2438 27.0433 90.3971 27.33C90.5504 27.61 90.7638 27.83 91.0371 27.99C91.3104 28.1433 91.6138 28.22 91.9471 28.22ZM98.3719 29.06C97.8452 29.06 97.3719 28.9433 96.9519 28.71C96.5319 28.4767 96.2019 28.1567 95.9619 27.75C95.7285 27.3367 95.6119 26.87 95.6119 26.35C95.6119 25.83 95.7285 25.3667 95.9619 24.96C96.2019 24.5467 96.5319 24.2267 96.9519 24C97.3719 23.7667 97.8452 23.65 98.3719 23.65C98.8985 23.65 99.3685 23.7667 99.7819 24C100.202 24.2267 100.529 24.5467 100.762 24.96C101.002 25.3667 101.122 25.83 101.122 26.35C101.122 26.87 101.002 27.3367 100.762 27.75C100.529 28.1567 100.202 28.4767 99.7819 28.71C99.3685 28.9433 98.8985 29.06 98.3719 29.06ZM98.3719 28.22C98.7119 28.22 99.0152 28.1433 99.2819 27.99C99.5552 27.83 99.7685 27.61 99.9219 27.33C100.075 27.0433 100.152 26.7167 100.152 26.35C100.152 25.9833 100.075 25.66 99.9219 25.38C99.7685 25.0933 99.5552 24.8733 99.2819 24.72C99.0152 24.5667 98.7119 24.49 98.3719 24.49C98.0319 24.49 97.7252 24.5667 97.4519 24.72C97.1852 24.8733 96.9719 25.0933 96.8119 25.38C96.6585 25.66 96.5819 25.9833 96.5819 26.35C96.5819 26.7167 96.6585 27.0433 96.8119 27.33C96.9719 27.61 97.1852 27.83 97.4519 27.99C97.7252 28.1433 98.0319 28.22 98.3719 28.22ZM102.508 23.7H103.468V27.56L106.718 23.7H107.588V29H106.628V25.14L103.388 29H102.508V23.7ZM113.401 24.54H111.461V29H110.501V24.54H108.561V23.7H113.401V24.54ZM118.939 26.38C118.939 26.4533 118.932 26.55 118.919 26.67H114.619C114.679 27.1367 114.882 27.5133 115.229 27.8C115.582 28.08 116.019 28.22 116.539 28.22C117.172 28.22 117.682 28.0067 118.069 27.58L118.599 28.2C118.359 28.48 118.059 28.6933 117.699 28.84C117.345 28.9867 116.949 29.06 116.509 29.06C115.949 29.06 115.452 28.9467 115.019 28.72C114.585 28.4867 114.249 28.1633 114.009 27.75C113.775 27.3367 113.659 26.87 113.659 26.35C113.659 25.8367 113.772 25.3733 113.999 24.96C114.232 24.5467 114.549 24.2267 114.949 24C115.355 23.7667 115.812 23.65 116.319 23.65C116.825 23.65 117.275 23.7667 117.669 24C118.069 24.2267 118.379 24.5467 118.599 24.96C118.825 25.3733 118.939 25.8467 118.939 26.38ZM116.319 24.46C115.859 24.46 115.472 24.6 115.159 24.88C114.852 25.16 114.672 25.5267 114.619 25.98H118.019C117.965 25.5333 117.782 25.17 117.469 24.89C117.162 24.6033 116.779 24.46 116.319 24.46ZM124.89 23.7V29H123.93V24.54H121.65L121.59 25.72C121.557 26.4333 121.493 27.03 121.4 27.51C121.307 27.9833 121.153 28.3633 120.94 28.65C120.727 28.9367 120.43 29.08 120.05 29.08C119.877 29.08 119.68 29.05 119.46 28.99L119.52 28.18C119.607 28.2 119.687 28.21 119.76 28.21C120.027 28.21 120.227 28.0933 120.36 27.86C120.493 27.6267 120.58 27.35 120.62 27.03C120.66 26.71 120.697 26.2533 120.73 25.66L120.82 23.7H124.89ZM129.196 25.5C129.87 25.5067 130.383 25.66 130.736 25.96C131.09 26.26 131.266 26.6833 131.266 27.23C131.266 27.8033 131.073 28.2467 130.686 28.56C130.306 28.8667 129.76 29.0167 129.046 29.01L126.746 29V23.7H127.706V25.49L129.196 25.5ZM128.966 28.28C129.4 28.2867 129.726 28.2 129.946 28.02C130.173 27.84 130.286 27.5733 130.286 27.22C130.286 26.8733 130.176 26.62 129.956 26.46C129.743 26.3 129.413 26.2167 128.966 26.21L127.706 26.19V28.27L128.966 28.28ZM132.498 23.7H133.458V25.95H136.478V23.7H137.438V29H136.478V26.78H133.458V29H132.498V23.7ZM141.195 23.65C141.928 23.65 142.488 23.83 142.875 24.19C143.268 24.55 143.465 25.0867 143.465 25.8V29H142.555V28.3C142.395 28.5467 142.165 28.7367 141.865 28.87C141.572 28.9967 141.222 29.06 140.815 29.06C140.222 29.06 139.745 28.9167 139.385 28.63C139.032 28.3433 138.855 27.9667 138.855 27.5C138.855 27.0333 139.025 26.66 139.365 26.38C139.705 26.0933 140.245 25.95 140.985 25.95H142.505V25.76C142.505 25.3467 142.385 25.03 142.145 24.81C141.905 24.59 141.552 24.48 141.085 24.48C140.772 24.48 140.465 24.5333 140.165 24.64C139.865 24.74 139.612 24.8767 139.405 25.05L139.005 24.33C139.278 24.11 139.605 23.9433 139.985 23.83C140.365 23.71 140.768 23.65 141.195 23.65ZM140.975 28.32C141.342 28.32 141.658 28.24 141.925 28.08C142.192 27.9133 142.385 27.68 142.505 27.38V26.64H141.025C140.212 26.64 139.805 26.9133 139.805 27.46C139.805 27.7267 139.908 27.9367 140.115 28.09C140.322 28.2433 140.608 28.32 140.975 28.32ZM149.444 23.7V29H148.584V27.32H147.044H146.934L145.774 29H144.744L146.034 27.19C145.634 27.07 145.327 26.8733 145.114 26.6C144.9 26.32 144.794 25.9733 144.794 25.56C144.794 24.9533 145 24.4933 145.414 24.18C145.827 23.86 146.397 23.7 147.124 23.7H149.444ZM145.774 25.59C145.774 25.9433 145.884 26.2067 146.104 26.38C146.33 26.5467 146.667 26.63 147.114 26.63H148.584V24.54H147.154C146.234 24.54 145.774 24.89 145.774 25.59ZM156.062 26.76H154.962V29H154.002V23.7H154.962V25.94H156.082L157.802 23.7H158.832L156.822 26.25L158.972 29H157.842L156.062 26.76ZM162.073 29.06C161.546 29.06 161.073 28.9433 160.653 28.71C160.233 28.4767 159.903 28.1567 159.663 27.75C159.43 27.3367 159.313 26.87 159.313 26.35C159.313 25.83 159.43 25.3667 159.663 24.96C159.903 24.5467 160.233 24.2267 160.653 24C161.073 23.7667 161.546 23.65 162.073 23.65C162.6 23.65 163.07 23.7667 163.483 24C163.903 24.2267 164.23 24.5467 164.463 24.96C164.703 25.3667 164.823 25.83 164.823 26.35C164.823 26.87 164.703 27.3367 164.463 27.75C164.23 28.1567 163.903 28.4767 163.483 28.71C163.07 28.9433 162.6 29.06 162.073 29.06ZM162.073 28.22C162.413 28.22 162.716 28.1433 162.983 27.99C163.256 27.83 163.47 27.61 163.623 27.33C163.776 27.0433 163.853 26.7167 163.853 26.35C163.853 25.9833 163.776 25.66 163.623 25.38C163.47 25.0933 163.256 24.8733 162.983 24.72C162.716 24.5667 162.413 24.49 162.073 24.49C161.733 24.49 161.426 24.5667 161.153 24.72C160.886 24.8733 160.673 25.0933 160.513 25.38C160.36 25.66 160.283 25.9833 160.283 26.35C160.283 26.7167 160.36 27.0433 160.513 27.33C160.673 27.61 160.886 27.83 161.153 27.99C161.426 28.1433 161.733 28.22 162.073 28.22ZM172.319 23.7V29H171.449V25.13L169.469 28.4H169.049L167.089 25.12V29H166.209V23.7H167.199L169.279 27.28L171.419 23.7H172.319ZM179.098 23.7V29H178.138V24.54H175.148V29H174.188V23.7H179.098ZM182.845 23.65C183.579 23.65 184.139 23.83 184.525 24.19C184.919 24.55 185.115 25.0867 185.115 25.8V29H184.205V28.3C184.045 28.5467 183.815 28.7367 183.515 28.87C183.222 28.9967 182.872 29.06 182.465 29.06C181.872 29.06 181.395 28.9167 181.035 28.63C180.682 28.3433 180.505 27.9667 180.505 27.5C180.505 27.0333 180.675 26.66 181.015 26.38C181.355 26.0933 181.895 25.95 182.635 25.95H184.155V25.76C184.155 25.3467 184.035 25.03 183.795 24.81C183.555 24.59 183.202 24.48 182.735 24.48C182.422 24.48 182.115 24.5333 181.815 24.64C181.515 24.74 181.262 24.8767 181.055 25.05L180.655 24.33C180.929 24.11 181.255 23.9433 181.635 23.83C182.015 23.71 182.419 23.65 182.845 23.65ZM182.625 28.32C182.992 28.32 183.309 28.24 183.575 28.08C183.842 27.9133 184.035 27.68 184.155 27.38V26.64H182.675C181.862 26.64 181.455 26.9133 181.455 27.46C181.455 27.7267 181.559 27.9367 181.765 28.09C181.972 28.2433 182.259 28.32 182.625 28.32ZM186.844 23.7H187.804V25.95H190.824V23.7H191.784V29H190.824V26.78H187.804V29H186.844V23.7ZM193.651 23.7H194.611V27.56L197.861 23.7H198.731V29H197.771V25.14L194.531 29H193.651V23.7ZM204.844 23.7V29H203.984V27.32H202.444H202.334L201.174 29H200.144L201.434 27.19C201.034 27.07 200.727 26.8733 200.514 26.6C200.301 26.32 200.194 25.9733 200.194 25.56C200.194 24.9533 200.401 24.4933 200.814 24.18C201.227 23.86 201.797 23.7 202.524 23.7H204.844ZM201.174 25.59C201.174 25.9433 201.284 26.2067 201.504 26.38C201.731 26.5467 202.067 26.63 202.514 26.63H203.984V24.54H202.554C201.634 24.54 201.174 24.89 201.174 25.59Z" fill="white"/>
</svg>
