<svg width="50" height="50" viewBox="0 0 50 50" fill="none" xmlns="http://www.w3.org/2000/svg">
<path fill-rule="evenodd" clip-rule="evenodd" d="M50 10C50 4.47715 45.5228 0 40 0H10C4.47715 0 0 4.47715 0 10V40C0 45.5228 4.47715 50 10 50H40C45.5228 50 50 45.5228 50 40V10ZM41 20C41 14.4772 36.5228 10 31 10H20C14.4772 10 10 14.4772 10 20V31C10 36.5228 14.4772 41 20 41H31C36.5228 41 41 36.5228 41 31V20Z" fill="white"/>
<path d="M33.1752 36.4676L37.2768 17.1317C37.4442 16.3132 37.3465 15.7273 36.9838 15.3739C36.6211 15.0205 36.1421 14.9554 35.5469 15.1786L11.4397 24.4699C10.9003 24.6745 10.5329 24.907 10.3376 25.1674C10.1423 25.4278 10.119 25.6743 10.2679 25.9068C10.4167 26.1393 10.7143 26.3207 11.1607 26.4509L12.9229 27.0011C15.7174 27.8736 18.7539 27.4777 21.2313 25.9178L31.6406 19.3638C32.0312 19.1034 32.3289 19.0476 32.5335 19.1964C32.6637 19.2894 32.6265 19.4289 32.4219 19.615L22.1345 28.9108C21.3056 29.6598 20.799 30.7006 20.7207 31.815L20.4967 35.0081C20.4424 35.782 21.1032 36.3745 21.6518 35.8259V35.8259V35.8259C23.3924 34.1497 26.0878 33.972 28.0334 35.4052L30.9152 37.5279C32.1057 38.1975 32.859 37.8441 33.1752 36.4676ZM50 25C50 28.3854 49.3397 31.622 48.019 34.7098C46.6983 37.7976 44.9219 40.4576 42.6897 42.6897C40.4576 44.9219 37.7976 46.6983 34.7098 48.019C31.622 49.3397 28.3854 50 25 50C21.6146 50 18.378 49.3397 15.2902 48.019C12.2024 46.6983 9.54241 44.9219 7.31027 42.6897C5.07812 40.4576 3.30171 37.7976 1.98103 34.7098C0.660342 31.622 0 28.3854 0 25C0 21.6146 0.660342 18.378 1.98103 15.2902C3.30171 12.2024 5.07812 9.54241 7.31027 7.31027C9.54241 5.07812 12.2024 3.30171 15.2902 1.98103C18.378 0.660342 21.6146 0 25 0C28.3854 0 31.622 0.660342 34.7098 1.98103C37.7976 3.30171 40.4576 5.07812 42.6897 7.31027C44.9219 9.54241 46.6983 12.2024 48.019 15.2902C49.3397 18.378 50 21.6146 50 25Z" fill="white"/>
</svg>
