<svg width="50" height="50" viewBox="0 0 50 50" fill="none" xmlns="http://www.w3.org/2000/svg">
<path fill-rule="evenodd" clip-rule="evenodd" d="M40 0C45.5228 0 50 4.47715 50 10V25V40C50 45.5228 45.5228 50 40 50H25H10C4.47717 50 0 45.5228 0 40V25V10C0 4.47715 4.47717 0 10 0H25H40ZM37.2768 17.1317L33.1752 36.4676C32.859 37.8441 32.1057 38.1975 30.9152 37.5279L28.0334 35.4052C26.0878 33.972 23.3925 34.1497 21.6518 35.8259C21.1032 36.3745 20.4424 35.782 20.4967 35.0081L20.7208 31.815C20.799 30.7006 21.3056 29.6598 22.1345 28.9108L32.4219 19.615C32.6265 19.4289 32.6637 19.2894 32.5335 19.1964C32.3289 19.0476 32.0312 19.1034 31.6406 19.3638L21.2313 25.9178C18.7539 27.4777 15.7174 27.8736 12.9229 27.0011L11.1607 26.4509C10.7143 26.3207 10.4167 26.1393 10.2679 25.9068C10.119 25.6743 10.1423 25.4278 10.3376 25.1674C10.5329 24.907 10.9003 24.6745 11.4398 24.4699L35.5469 15.1786C36.1421 14.9554 36.6211 15.0205 36.9838 15.3739C37.3466 15.7273 37.4442 16.3132 37.2768 17.1317Z" fill="white"/>
</svg>
